<?xml version="1.0" encoding="utf-8"?>
<!-- Generator: Adobe Illustrator 23.0.2, SVG Export Plug-In . SVG Version: 6.00 Build 0)  -->
<svg version="1.1" id="Layer_1" xmlns="http://www.w3.org/2000/svg" xmlns:xlink="http://www.w3.org/1999/xlink" x="0px" y="0px"
	 viewBox="0 0 1920 400" style="enable-background:new 0 0 1920 400;" xml:space="preserve">
<style type="text/css">
	.st0{fill:none;stroke:#EA5B0C;stroke-width:2;stroke-miterlimit:10;}
</style>
<g>
	<line class="st0" x1="-988.11" y1="442.17" x2="-681.58" y2="-14.93"/>
	<line class="st0" x1="-946.88" y1="442.17" x2="-640.35" y2="-14.93"/>
	<line class="st0" x1="-905.65" y1="442.17" x2="-599.12" y2="-14.93"/>
	<line class="st0" x1="-864.42" y1="442.17" x2="-557.89" y2="-14.93"/>
	<line class="st0" x1="-823.19" y1="442.17" x2="-516.66" y2="-14.93"/>
	<line class="st0" x1="-781.96" y1="442.17" x2="-475.43" y2="-14.93"/>
	<line class="st0" x1="-740.73" y1="442.17" x2="-434.2" y2="-14.93"/>
	<line class="st0" x1="-699.5" y1="442.17" x2="-392.97" y2="-14.93"/>
	<line class="st0" x1="-658.27" y1="442.17" x2="-351.74" y2="-14.93"/>
	<line class="st0" x1="-617.04" y1="442.17" x2="-310.51" y2="-14.93"/>
	<line class="st0" x1="-575.81" y1="442.17" x2="-269.28" y2="-14.93"/>
	<line class="st0" x1="-534.58" y1="442.17" x2="-228.05" y2="-14.93"/>
	<line class="st0" x1="-493.35" y1="442.17" x2="-186.82" y2="-14.93"/>
	<line class="st0" x1="-452.12" y1="442.17" x2="-145.59" y2="-14.93"/>
	<line class="st0" x1="-410.89" y1="442.17" x2="-104.36" y2="-14.93"/>
	<line class="st0" x1="-369.66" y1="442.17" x2="-63.13" y2="-14.93"/>
	<line class="st0" x1="-328.43" y1="442.17" x2="-21.9" y2="-14.93"/>
	<line class="st0" x1="-287.2" y1="442.17" x2="19.33" y2="-14.93"/>
	<line class="st0" x1="-245.97" y1="442.17" x2="60.56" y2="-14.93"/>
	<line class="st0" x1="-204.74" y1="442.17" x2="101.79" y2="-14.93"/>
	<line class="st0" x1="-163.51" y1="442.17" x2="143.02" y2="-14.93"/>
	<line class="st0" x1="-122.28" y1="442.17" x2="184.25" y2="-14.93"/>
	<line class="st0" x1="-81.05" y1="442.17" x2="225.48" y2="-14.93"/>
	<line class="st0" x1="-39.82" y1="442.17" x2="266.71" y2="-14.93"/>
	<line class="st0" x1="1.41" y1="442.17" x2="307.94" y2="-14.93"/>
	<line class="st0" x1="42.64" y1="442.17" x2="349.17" y2="-14.93"/>
	<line class="st0" x1="83.87" y1="442.17" x2="390.4" y2="-14.93"/>
	<line class="st0" x1="125.1" y1="442.17" x2="431.63" y2="-14.93"/>
	<line class="st0" x1="166.33" y1="442.17" x2="472.86" y2="-14.93"/>
	<line class="st0" x1="207.56" y1="442.17" x2="514.09" y2="-14.93"/>
	<line class="st0" x1="248.79" y1="442.17" x2="555.32" y2="-14.93"/>
	<line class="st0" x1="290.02" y1="442.17" x2="596.55" y2="-14.93"/>
	<line class="st0" x1="331.25" y1="442.17" x2="637.78" y2="-14.93"/>
	<line class="st0" x1="372.48" y1="442.17" x2="679.01" y2="-14.93"/>
	<line class="st0" x1="413.71" y1="442.17" x2="720.24" y2="-14.93"/>
	<line class="st0" x1="454.94" y1="442.17" x2="761.47" y2="-14.93"/>
	<line class="st0" x1="496.17" y1="442.17" x2="802.7" y2="-14.93"/>
	<line class="st0" x1="537.4" y1="442.17" x2="843.93" y2="-14.93"/>
	<line class="st0" x1="578.63" y1="442.17" x2="885.16" y2="-14.93"/>
	<line class="st0" x1="619.86" y1="442.17" x2="926.39" y2="-14.93"/>
	<line class="st0" x1="661.09" y1="442.17" x2="967.62" y2="-14.93"/>
	<line class="st0" x1="702.32" y1="442.17" x2="1008.85" y2="-14.93"/>
	<line class="st0" x1="743.55" y1="442.17" x2="1050.08" y2="-14.93"/>
	<line class="st0" x1="784.78" y1="442.17" x2="1091.31" y2="-14.93"/>
	<line class="st0" x1="826.01" y1="442.17" x2="1132.54" y2="-14.93"/>
	<line class="st0" x1="867.24" y1="442.17" x2="1173.77" y2="-14.93"/>
	<line class="st0" x1="908.47" y1="442.17" x2="1215" y2="-14.93"/>
	<line class="st0" x1="949.7" y1="442.17" x2="1256.23" y2="-14.93"/>
	<line class="st0" x1="990.93" y1="442.17" x2="1297.46" y2="-14.93"/>
	<line class="st0" x1="1032.16" y1="442.17" x2="1338.69" y2="-14.93"/>
	<line class="st0" x1="1073.39" y1="442.17" x2="1379.92" y2="-14.93"/>
	<line class="st0" x1="1114.62" y1="442.17" x2="1421.15" y2="-14.93"/>
	<line class="st0" x1="1155.85" y1="442.17" x2="1462.38" y2="-14.93"/>
	<line class="st0" x1="1197.08" y1="442.17" x2="1503.61" y2="-14.93"/>
	<line class="st0" x1="1238.31" y1="442.17" x2="1544.84" y2="-14.93"/>
	<line class="st0" x1="1279.54" y1="442.17" x2="1586.07" y2="-14.93"/>
	<line class="st0" x1="1320.77" y1="442.17" x2="1627.3" y2="-14.93"/>
	<line class="st0" x1="1362" y1="442.17" x2="1668.53" y2="-14.93"/>
	<line class="st0" x1="1403.23" y1="442.17" x2="1709.76" y2="-14.93"/>
	<line class="st0" x1="1444.46" y1="442.17" x2="1750.99" y2="-14.93"/>
	<line class="st0" x1="1485.69" y1="442.17" x2="1792.22" y2="-14.93"/>
	<line class="st0" x1="1526.92" y1="442.17" x2="1833.45" y2="-14.93"/>
	<line class="st0" x1="1568.15" y1="442.17" x2="1874.68" y2="-14.93"/>
	<line class="st0" x1="1609.38" y1="442.17" x2="1915.91" y2="-14.93"/>
	<line class="st0" x1="1650.61" y1="442.17" x2="1957.14" y2="-14.93"/>
	<line class="st0" x1="1691.84" y1="442.17" x2="1998.37" y2="-14.93"/>
	<line class="st0" x1="1733.07" y1="442.17" x2="2039.6" y2="-14.93"/>
	<line class="st0" x1="1774.3" y1="442.17" x2="2080.83" y2="-14.93"/>
	<line class="st0" x1="1815.53" y1="442.17" x2="2122.06" y2="-14.93"/>
	<line class="st0" x1="1856.76" y1="442.17" x2="2163.29" y2="-14.93"/>
	<line class="st0" x1="1897.99" y1="442.17" x2="2204.52" y2="-14.93"/>
	<line class="st0" x1="1939.22" y1="442.17" x2="2245.75" y2="-14.93"/>
	<line class="st0" x1="1980.45" y1="442.17" x2="2286.98" y2="-14.93"/>
	<line class="st0" x1="2021.68" y1="442.17" x2="2328.21" y2="-14.93"/>
	<line class="st0" x1="2062.91" y1="442.17" x2="2369.44" y2="-14.93"/>
	<line class="st0" x1="2104.14" y1="442.17" x2="2410.67" y2="-14.93"/>
	<line class="st0" x1="2145.37" y1="442.17" x2="2451.9" y2="-14.93"/>
	<line class="st0" x1="2186.6" y1="442.17" x2="2493.13" y2="-14.93"/>
	<line class="st0" x1="2227.83" y1="442.17" x2="2534.36" y2="-14.93"/>
	<line class="st0" x1="2269.06" y1="442.17" x2="2575.59" y2="-14.93"/>
	<line class="st0" x1="2310.29" y1="442.17" x2="2616.82" y2="-14.93"/>
	<line class="st0" x1="2351.52" y1="442.17" x2="2658.05" y2="-14.93"/>
</g>
</svg>
