<?xml version="1.0" encoding="utf-8"?>
<!-- Generator: Adobe Illustrator 23.0.2, SVG Export Plug-In . SVG Version: 6.00 Build 0)  -->
<svg version="1.1" id="Layer_1" xmlns="http://www.w3.org/2000/svg" xmlns:xlink="http://www.w3.org/1999/xlink" x="0px" y="0px"
	 viewBox="0 0 1920 200" style="enable-background:new 0 0 1920 200;" xml:space="preserve">
<style type="text/css">
	.st0{fill:none;stroke:#EA5B0C;stroke-width:2;stroke-miterlimit:10;}
</style>
<g>
	<circle class="st0" cx="1994.02" cy="-46.92" r="24.35"/>
	<path class="st0" d="M1935.79-68.01c11.65,6.72,15.64,21.62,8.92,33.27c-6.72,11.65-21.62,15.64-33.27,8.91
		c-11.65-6.72-15.64-21.62-8.91-33.27C1909.25-70.74,1924.14-74.73,1935.79-68.01z"/>
	<circle class="st0" cx="1888.83" cy="-46.92" r="24.35"/>
	<path class="st0" d="M1830.6-68.01c11.65,6.72,15.64,21.62,8.92,33.27c-6.72,11.65-21.62,15.64-33.27,8.91
		c-11.65-6.72-15.64-21.62-8.91-33.27C1804.06-70.74,1818.95-74.73,1830.6-68.01z"/>
	<circle class="st0" cx="1783.63" cy="-46.92" r="24.35"/>
	<path class="st0" d="M1725.41-68.01c11.65,6.72,15.64,21.62,8.92,33.27c-6.72,11.65-21.62,15.64-33.27,8.91
		c-11.65-6.72-15.64-21.62-8.91-33.27C1698.86-70.74,1713.76-74.73,1725.41-68.01z"/>
	<circle class="st0" cx="1678.44" cy="-46.92" r="24.35"/>
	<path class="st0" d="M1620.21-68.01c11.65,6.72,15.64,21.62,8.92,33.27c-6.72,11.65-21.62,15.64-33.27,8.91
		c-11.65-6.72-15.64-21.62-8.91-33.27C1593.67-70.74,1608.56-74.73,1620.21-68.01z"/>
	<circle class="st0" cx="1573.24" cy="-46.92" r="24.35"/>
	<path class="st0" d="M1515.02-68.01c11.65,6.72,15.64,21.62,8.92,33.27c-6.72,11.65-21.62,15.64-33.27,8.91
		c-11.65-6.72-15.64-21.62-8.91-33.27C1488.48-70.74,1503.37-74.73,1515.02-68.01z"/>
	<circle class="st0" cx="1468.05" cy="-46.92" r="24.35"/>
	<path class="st0" d="M1409.82-68.01c11.65,6.72,15.64,21.62,8.92,33.27c-6.72,11.65-21.62,15.64-33.27,8.91
		c-11.65-6.72-15.64-21.62-8.91-33.27C1383.28-70.74,1398.17-74.73,1409.82-68.01z"/>
	<circle class="st0" cx="1362.86" cy="-46.92" r="24.35"/>
	<path class="st0" d="M1304.63-68.01c11.65,6.72,15.64,21.62,8.92,33.27c-6.72,11.65-21.62,15.64-33.27,8.91
		c-11.65-6.72-15.64-21.62-8.91-33.27C1278.09-70.74,1292.98-74.73,1304.63-68.01z"/>
	<circle class="st0" cx="1257.66" cy="-46.92" r="24.35"/>
	<path class="st0" d="M1199.44-68.01c11.65,6.72,15.64,21.62,8.92,33.27c-6.72,11.65-21.62,15.64-33.27,8.91
		c-11.65-6.72-15.64-21.62-8.91-33.27C1172.89-70.74,1187.79-74.73,1199.44-68.01z"/>
	<circle class="st0" cx="1152.47" cy="-46.92" r="24.35"/>
	<path class="st0" d="M1094.24-68.01c11.65,6.72,15.64,21.62,8.92,33.27c-6.72,11.65-21.62,15.64-33.27,8.91
		c-11.65-6.72-15.64-21.62-8.91-33.27C1067.7-70.74,1082.59-74.73,1094.24-68.01z"/>
	<circle class="st0" cx="1047.27" cy="-46.92" r="24.35"/>
	<path class="st0" d="M989.05-68.01c11.65,6.72,15.64,21.62,8.92,33.27c-6.72,11.65-21.62,15.64-33.27,8.91
		c-11.65-6.72-15.64-21.62-8.91-33.27C962.51-70.74,977.4-74.73,989.05-68.01z"/>
	<circle class="st0" cx="942.08" cy="-46.92" r="24.35"/>
	<path class="st0" d="M883.85-68.01c11.65,6.72,15.64,21.62,8.92,33.27c-6.72,11.65-21.62,15.64-33.27,8.91
		c-11.65-6.72-15.64-21.62-8.91-33.27C857.31-70.74,872.2-74.73,883.85-68.01z"/>
	<circle class="st0" cx="836.89" cy="-46.92" r="24.35"/>
	<path class="st0" d="M778.66-68.01c11.65,6.72,15.64,21.62,8.92,33.27c-6.72,11.65-21.62,15.64-33.27,8.91
		c-11.65-6.72-15.64-21.62-8.91-33.27C752.12-70.74,767.01-74.73,778.66-68.01z"/>
	<circle class="st0" cx="731.69" cy="-46.92" r="24.35"/>
	<path class="st0" d="M673.46-68.01c11.65,6.72,15.64,21.62,8.92,33.27c-6.72,11.65-21.62,15.64-33.27,8.91
		c-11.65-6.72-15.64-21.62-8.91-33.27C646.92-70.74,661.82-74.73,673.46-68.01z"/>
	<circle class="st0" cx="626.5" cy="-46.92" r="24.35"/>
	<path class="st0" d="M568.27-68.01c11.65,6.72,15.64,21.62,8.92,33.27c-6.72,11.65-21.62,15.64-33.27,8.91
		c-11.65-6.72-15.64-21.62-8.91-33.27C541.73-70.74,556.62-74.73,568.27-68.01z"/>
	<circle class="st0" cx="521.3" cy="-46.92" r="24.35"/>
	<path class="st0" d="M463.08-68.01c11.65,6.72,15.64,21.62,8.92,33.27c-6.72,11.65-21.62,15.64-33.27,8.91
		c-11.65-6.72-15.64-21.62-8.91-33.27C436.54-70.74,451.43-74.73,463.08-68.01z"/>
	<circle class="st0" cx="416.11" cy="-46.92" r="24.35"/>
	<path class="st0" d="M357.88-68.01c11.65,6.72,15.64,21.62,8.92,33.27c-6.72,11.65-21.62,15.64-33.27,8.91
		c-11.65-6.72-15.64-21.62-8.91-33.27C331.34-70.74,346.23-74.73,357.88-68.01z"/>
	<circle class="st0" cx="310.91" cy="-46.92" r="24.35"/>
	<path class="st0" d="M252.69-68.01c11.65,6.72,15.64,21.62,8.92,33.27c-6.72,11.65-21.62,15.64-33.27,8.91
		c-11.65-6.72-15.64-21.62-8.91-33.27C226.15-70.74,241.04-74.73,252.69-68.01z"/>
	<circle class="st0" cx="205.72" cy="-46.92" r="24.35"/>
	<path class="st0" d="M147.49-68.01c11.65,6.72,15.64,21.62,8.92,33.27c-6.72,11.65-21.62,15.64-33.27,8.91
		c-11.65-6.72-15.64-21.62-8.91-33.27C120.95-70.74,135.85-74.73,147.49-68.01z"/>
	<circle class="st0" cx="100.53" cy="-46.92" r="24.35"/>
	<path class="st0" d="M42.3-68.01c11.65,6.72,15.64,21.62,8.92,33.27C44.49-23.09,29.6-19.1,17.95-25.82
		C6.3-32.55,2.31-47.44,9.03-59.09C15.76-70.74,30.65-74.73,42.3-68.01z"/>
	<circle class="st0" cx="-4.67" cy="-46.92" r="24.35"/>
	<path class="st0" d="M1936.21,32.8c-11.65,6.73-26.54,2.74-33.27-8.91c-6.73-11.65-2.73-26.54,8.91-33.27
		c11.65-6.72,26.54-2.73,33.27,8.91C1951.84,11.18,1947.85,26.08,1936.21,32.8z"/>
	<path class="st0" d="M1929.25,2.67c-11.65-6.72-15.64-21.62-8.91-33.27c6.72-11.65,21.62-15.64,33.27-8.91
		c11.65,6.72,15.64,21.62,8.92,33.27C1955.79,5.41,1940.9,9.4,1929.25,2.67z"/>
	<path class="st0" d="M1951.86-18.42c0-13.45,10.9-24.35,24.35-24.35c13.45,0,24.35,10.9,24.35,24.35
		c0,13.45-10.9,24.35-24.35,24.35C1962.76,5.94,1951.86-4.97,1951.86-18.42z"/>
	<path class="st0" d="M1981.43-9.38c11.65-6.72,26.54-2.73,33.27,8.91c6.72,11.65,2.73,26.54-8.92,33.27
		c-11.65,6.73-26.54,2.73-33.27-8.91C1965.79,12.24,1969.78-2.65,1981.43-9.38z"/>
	<path class="st0" d="M1988.39,20.75c11.65,6.72,15.64,21.62,8.92,33.27c-6.72,11.65-21.62,15.64-33.27,8.91
		c-11.65-6.72-15.64-21.62-8.91-33.27C1961.85,18.02,1976.74,14.03,1988.39,20.75z"/>
	<circle class="st0" cx="1941.42" cy="41.84" r="24.35"/>
	<path class="st0" d="M1831.01,32.8c-11.65,6.73-26.54,2.74-33.27-8.91c-6.73-11.65-2.73-26.54,8.91-33.27
		c11.65-6.72,26.54-2.73,33.27,8.91C1846.65,11.18,1842.66,26.08,1831.01,32.8z"/>
	<path class="st0" d="M1824.05,2.67c-11.65-6.72-15.64-21.62-8.91-33.27c6.72-11.65,21.62-15.64,33.27-8.91
		c11.65,6.72,15.64,21.62,8.92,33.27C1850.6,5.41,1835.7,9.4,1824.05,2.67z"/>
	<path class="st0" d="M1846.67-18.42c0-13.45,10.9-24.35,24.35-24.35c13.45,0,24.35,10.9,24.35,24.35
		c0,13.45-10.9,24.35-24.35,24.35C1857.57,5.94,1846.67-4.97,1846.67-18.42z"/>
	<path class="st0" d="M1876.24-9.38c11.65-6.72,26.54-2.73,33.27,8.91c6.72,11.65,2.73,26.54-8.92,33.27
		c-11.65,6.73-26.54,2.73-33.27-8.91C1860.6,12.24,1864.59-2.65,1876.24-9.38z"/>
	<path class="st0" d="M1883.2,20.75c11.65,6.72,15.64,21.62,8.92,33.27c-6.72,11.65-21.62,15.64-33.27,8.91
		c-11.65-6.72-15.64-21.62-8.91-33.27C1856.66,18.02,1871.55,14.03,1883.2,20.75z"/>
	<circle class="st0" cx="1836.23" cy="41.84" r="24.35"/>
	<path class="st0" d="M1725.82,32.8c-11.65,6.73-26.54,2.74-33.27-8.91c-6.73-11.65-2.73-26.54,8.91-33.27
		c11.65-6.72,26.54-2.73,33.27,8.91C1741.46,11.18,1737.47,26.08,1725.82,32.8z"/>
	<path class="st0" d="M1718.86,2.67c-11.65-6.72-15.64-21.62-8.91-33.27c6.72-11.65,21.62-15.64,33.27-8.91
		c11.65,6.72,15.64,21.62,8.92,33.27C1745.4,5.41,1730.51,9.4,1718.86,2.67z"/>
	<path class="st0" d="M1741.47-18.42c0-13.45,10.9-24.35,24.35-24.35c13.45,0,24.35,10.9,24.35,24.35
		c0,13.45-10.9,24.35-24.35,24.35C1752.38,5.94,1741.47-4.97,1741.47-18.42z"/>
	<path class="st0" d="M1771.04-9.38c11.65-6.72,26.54-2.73,33.27,8.91c6.72,11.65,2.73,26.54-8.92,33.27
		c-11.65,6.73-26.54,2.73-33.27-8.91C1755.4,12.24,1759.4-2.65,1771.04-9.38z"/>
	<path class="st0" d="M1778,20.75c11.65,6.72,15.64,21.62,8.92,33.27c-6.72,11.65-21.62,15.64-33.27,8.91
		c-11.65-6.72-15.64-21.62-8.91-33.27C1751.46,18.02,1766.35,14.03,1778,20.75z"/>
	<circle class="st0" cx="1731.04" cy="41.84" r="24.35"/>
	<path class="st0" d="M1620.62,32.8c-11.65,6.73-26.54,2.74-33.27-8.91c-6.73-11.65-2.73-26.54,8.91-33.27
		c11.65-6.72,26.54-2.73,33.27,8.91C1636.26,11.18,1632.27,26.08,1620.62,32.8z"/>
	<path class="st0" d="M1613.66,2.67c-11.65-6.72-15.64-21.62-8.91-33.27c6.72-11.65,21.62-15.64,33.27-8.91
		c11.65,6.72,15.64,21.62,8.92,33.27C1640.21,5.41,1625.31,9.4,1613.66,2.67z"/>
	<path class="st0" d="M1636.28-18.42c0-13.45,10.9-24.35,24.35-24.35c13.45,0,24.35,10.9,24.35,24.35
		c0,13.45-10.9,24.35-24.35,24.35C1647.18,5.94,1636.28-4.97,1636.28-18.42z"/>
	<path class="st0" d="M1665.85-9.38c11.65-6.72,26.54-2.73,33.27,8.91c6.72,11.65,2.73,26.54-8.92,33.27
		c-11.65,6.73-26.54,2.73-33.27-8.91C1650.21,12.24,1654.2-2.65,1665.85-9.38z"/>
	<path class="st0" d="M1672.81,20.75c11.65,6.72,15.64,21.62,8.92,33.27c-6.72,11.65-21.62,15.64-33.27,8.91
		c-11.65-6.72-15.64-21.62-8.91-33.27C1646.27,18.02,1661.16,14.03,1672.81,20.75z"/>
	<circle class="st0" cx="1625.84" cy="41.84" r="24.35"/>
	<path class="st0" d="M1515.43,32.8c-11.65,6.73-26.54,2.74-33.27-8.91c-6.73-11.65-2.73-26.54,8.91-33.27
		c11.65-6.72,26.54-2.73,33.27,8.91C1531.07,11.18,1527.08,26.08,1515.43,32.8z"/>
	<path class="st0" d="M1508.47,2.67c-11.65-6.72-15.64-21.62-8.91-33.27c6.72-11.65,21.62-15.64,33.27-8.91
		c11.65,6.72,15.64,21.62,8.92,33.27C1535.01,5.41,1520.12,9.4,1508.47,2.67z"/>
	<path class="st0" d="M1531.08-18.42c0-13.45,10.9-24.35,24.35-24.35c13.45,0,24.35,10.9,24.35,24.35
		c0,13.45-10.9,24.35-24.35,24.35C1541.99,5.94,1531.08-4.97,1531.08-18.42z"/>
	<path class="st0" d="M1560.66-9.38c11.65-6.72,26.54-2.73,33.27,8.91c6.72,11.65,2.73,26.54-8.92,33.27
		c-11.65,6.73-26.54,2.73-33.27-8.91C1545.02,12.24,1549.01-2.65,1560.66-9.38z"/>
	<path class="st0" d="M1567.61,20.75c11.65,6.72,15.64,21.62,8.92,33.27c-6.72,11.65-21.62,15.64-33.27,8.91
		c-11.65-6.72-15.64-21.62-8.91-33.27C1541.07,18.02,1555.97,14.03,1567.61,20.75z"/>
	<circle class="st0" cx="1520.65" cy="41.84" r="24.35"/>
	<path class="st0" d="M1410.23,32.8c-11.65,6.73-26.54,2.74-33.27-8.91c-6.73-11.65-2.73-26.54,8.91-33.27
		c11.65-6.72,26.54-2.73,33.27,8.91C1425.87,11.18,1421.88,26.08,1410.23,32.8z"/>
	<path class="st0" d="M1403.28,2.67c-11.65-6.72-15.64-21.62-8.91-33.27c6.72-11.65,21.62-15.64,33.27-8.91
		c11.65,6.72,15.64,21.62,8.92,33.27C1429.82,5.41,1414.93,9.4,1403.28,2.67z"/>
	<path class="st0" d="M1425.89-18.42c0-13.45,10.9-24.35,24.35-24.35c13.45,0,24.35,10.9,24.35,24.35
		c0,13.45-10.9,24.35-24.35,24.35C1436.79,5.94,1425.89-4.97,1425.89-18.42z"/>
	<path class="st0" d="M1455.46-9.38c11.65-6.72,26.54-2.73,33.27,8.91c6.72,11.65,2.73,26.54-8.92,33.27
		c-11.65,6.73-26.54,2.73-33.27-8.91C1439.82,12.24,1443.81-2.65,1455.46-9.38z"/>
	<path class="st0" d="M1462.42,20.75c11.65,6.72,15.64,21.62,8.92,33.27c-6.72,11.65-21.62,15.64-33.27,8.91
		c-11.65-6.72-15.64-21.62-8.91-33.27C1435.88,18.02,1450.77,14.03,1462.42,20.75z"/>
	<circle class="st0" cx="1415.45" cy="41.84" r="24.35"/>
	<path class="st0" d="M1305.04,32.8c-11.65,6.73-26.54,2.74-33.27-8.91c-6.73-11.65-2.73-26.54,8.91-33.27
		c11.65-6.72,26.54-2.73,33.27,8.91C1320.68,11.18,1316.69,26.08,1305.04,32.8z"/>
	<path class="st0" d="M1298.08,2.67c-11.65-6.72-15.64-21.62-8.91-33.27c6.72-11.65,21.62-15.64,33.27-8.91
		c11.65,6.72,15.64,21.62,8.92,33.27C1324.63,5.41,1309.73,9.4,1298.08,2.67z"/>
	<path class="st0" d="M1320.7-18.42c0-13.45,10.9-24.35,24.35-24.35c13.45,0,24.35,10.9,24.35,24.35c0,13.45-10.9,24.35-24.35,24.35
		C1331.6,5.94,1320.7-4.97,1320.7-18.42z"/>
	<path class="st0" d="M1350.27-9.38c11.65-6.72,26.54-2.73,33.27,8.91c6.72,11.65,2.73,26.54-8.92,33.27
		c-11.65,6.73-26.54,2.73-33.27-8.91C1334.63,12.24,1338.62-2.65,1350.27-9.38z"/>
	<path class="st0" d="M1357.23,20.75c11.65,6.72,15.64,21.62,8.92,33.27c-6.72,11.65-21.62,15.64-33.27,8.91
		c-11.65-6.72-15.64-21.62-8.91-33.27C1330.69,18.02,1345.58,14.03,1357.23,20.75z"/>
	<circle class="st0" cx="1310.26" cy="41.84" r="24.35"/>
	<path class="st0" d="M1199.85,32.8c-11.65,6.73-26.54,2.74-33.27-8.91c-6.73-11.65-2.73-26.54,8.91-33.27
		c11.65-6.72,26.54-2.73,33.27,8.91C1215.49,11.18,1211.5,26.08,1199.85,32.8z"/>
	<path class="st0" d="M1192.89,2.67c-11.65-6.72-15.64-21.62-8.91-33.27c6.72-11.65,21.62-15.64,33.27-8.91
		c11.65,6.72,15.64,21.62,8.92,33.27C1219.43,5.41,1204.54,9.4,1192.89,2.67z"/>
	<path class="st0" d="M1215.5-18.42c0-13.45,10.9-24.35,24.35-24.35c13.45,0,24.35,10.9,24.35,24.35c0,13.45-10.9,24.35-24.35,24.35
		C1226.41,5.94,1215.5-4.97,1215.5-18.42z"/>
	<path class="st0" d="M1245.07-9.38c11.65-6.72,26.54-2.73,33.27,8.91c6.72,11.65,2.73,26.54-8.92,33.27
		c-11.65,6.73-26.54,2.73-33.27-8.91C1229.43,12.24,1233.43-2.65,1245.07-9.38z"/>
	<path class="st0" d="M1252.03,20.75c11.65,6.72,15.64,21.62,8.92,33.27c-6.72,11.65-21.62,15.64-33.27,8.91
		c-11.65-6.72-15.64-21.62-8.91-33.27C1225.49,18.02,1240.38,14.03,1252.03,20.75z"/>
	<circle class="st0" cx="1205.06" cy="41.84" r="24.35"/>
	<path class="st0" d="M1094.65,32.8c-11.65,6.73-26.54,2.74-33.27-8.91c-6.73-11.65-2.73-26.54,8.91-33.27
		c11.65-6.72,26.54-2.73,33.27,8.91C1110.29,11.18,1106.3,26.08,1094.65,32.8z"/>
	<path class="st0" d="M1087.69,2.67c-11.65-6.72-15.64-21.62-8.91-33.27c6.72-11.65,21.62-15.64,33.27-8.91
		c11.65,6.72,15.64,21.62,8.92,33.27C1114.24,5.41,1099.34,9.4,1087.69,2.67z"/>
	<path class="st0" d="M1110.31-18.42c0-13.45,10.9-24.35,24.35-24.35c13.45,0,24.35,10.9,24.35,24.35
		c0,13.45-10.9,24.35-24.35,24.35C1121.21,5.94,1110.31-4.97,1110.31-18.42z"/>
	<path class="st0" d="M1139.88-9.38c11.65-6.72,26.54-2.73,33.27,8.91c6.72,11.65,2.73,26.54-8.92,33.27
		c-11.65,6.73-26.54,2.73-33.27-8.91C1124.24,12.24,1128.23-2.65,1139.88-9.38z"/>
	<path class="st0" d="M1146.84,20.75c11.65,6.72,15.64,21.62,8.92,33.27c-6.72,11.65-21.62,15.64-33.27,8.91
		c-11.65-6.72-15.64-21.62-8.91-33.27C1120.3,18.02,1135.19,14.03,1146.84,20.75z"/>
	<circle class="st0" cx="1099.87" cy="41.84" r="24.35"/>
	<path class="st0" d="M989.46,32.8c-11.65,6.73-26.54,2.74-33.27-8.91c-6.73-11.65-2.73-26.54,8.91-33.27
		c11.65-6.72,26.54-2.73,33.27,8.91C1005.1,11.18,1001.11,26.08,989.46,32.8z"/>
	<path class="st0" d="M982.5,2.67c-11.65-6.72-15.64-21.62-8.91-33.27c6.72-11.65,21.62-15.64,33.27-8.91
		c11.65,6.72,15.64,21.62,8.92,33.27C1009.04,5.41,994.15,9.4,982.5,2.67z"/>
	<path class="st0" d="M1005.11-18.42c0-13.45,10.9-24.35,24.35-24.35c13.45,0,24.35,10.9,24.35,24.35
		c0,13.45-10.9,24.35-24.35,24.35C1016.02,5.94,1005.11-4.97,1005.11-18.42z"/>
	<path class="st0" d="M1034.69-9.38c11.65-6.72,26.54-2.73,33.27,8.91c6.72,11.65,2.73,26.54-8.92,33.27
		c-11.65,6.73-26.54,2.73-33.27-8.91C1019.05,12.24,1023.04-2.65,1034.69-9.38z"/>
	<path class="st0" d="M1041.64,20.75c11.65,6.72,15.64,21.62,8.92,33.27c-6.72,11.65-21.62,15.64-33.27,8.91
		c-11.65-6.72-15.64-21.62-8.91-33.27C1015.1,18.02,1030,14.03,1041.64,20.75z"/>
	<circle class="st0" cx="994.68" cy="41.84" r="24.35"/>
	<path class="st0" d="M884.26,32.8c-11.65,6.73-26.54,2.74-33.27-8.91c-6.73-11.65-2.73-26.54,8.91-33.27
		c11.65-6.72,26.54-2.73,33.27,8.91C899.9,11.18,895.91,26.08,884.26,32.8z"/>
	<path class="st0" d="M877.31,2.67c-11.65-6.72-15.64-21.62-8.91-33.27c6.72-11.65,21.62-15.64,33.27-8.91
		c11.65,6.72,15.64,21.62,8.92,33.27C903.85,5.41,888.95,9.4,877.31,2.67z"/>
	<path class="st0" d="M899.92-18.42c0-13.45,10.9-24.35,24.35-24.35c13.45,0,24.35,10.9,24.35,24.35c0,13.45-10.9,24.35-24.35,24.35
		C910.82,5.94,899.92-4.97,899.92-18.42z"/>
	<path class="st0" d="M929.49-9.38c11.65-6.72,26.54-2.73,33.27,8.91c6.72,11.65,2.73,26.54-8.92,33.27
		c-11.65,6.73-26.54,2.73-33.27-8.91C913.85,12.24,917.84-2.65,929.49-9.38z"/>
	<path class="st0" d="M936.45,20.75c11.65,6.72,15.64,21.62,8.92,33.27c-6.72,11.65-21.62,15.64-33.27,8.91
		c-11.65-6.72-15.64-21.62-8.91-33.27C909.91,18.02,924.8,14.03,936.45,20.75z"/>
	<circle class="st0" cx="889.48" cy="41.84" r="24.35"/>
	<path class="st0" d="M779.07,32.8c-11.65,6.73-26.54,2.74-33.27-8.91c-6.73-11.65-2.73-26.54,8.91-33.27
		c11.65-6.72,26.54-2.73,33.27,8.91C794.71,11.18,790.72,26.08,779.07,32.8z"/>
	<path class="st0" d="M772.11,2.67c-11.65-6.72-15.64-21.62-8.91-33.27c6.72-11.65,21.62-15.64,33.27-8.91
		c11.65,6.72,15.64,21.62,8.92,33.27C798.66,5.41,783.76,9.4,772.11,2.67z"/>
	<path class="st0" d="M794.73-18.42c0-13.45,10.9-24.35,24.35-24.35c13.45,0,24.35,10.9,24.35,24.35c0,13.45-10.9,24.35-24.35,24.35
		C805.63,5.94,794.73-4.97,794.73-18.42z"/>
	<path class="st0" d="M824.3-9.38c11.65-6.72,26.54-2.73,33.27,8.91c6.72,11.65,2.73,26.54-8.92,33.27
		c-11.65,6.73-26.54,2.73-33.27-8.91C808.66,12.24,812.65-2.65,824.3-9.38z"/>
	<path class="st0" d="M831.26,20.75c11.65,6.72,15.64,21.62,8.92,33.27c-6.72,11.65-21.62,15.64-33.27,8.91
		c-11.65-6.72-15.64-21.62-8.91-33.27C804.71,18.02,819.61,14.03,831.26,20.75z"/>
	<circle class="st0" cx="784.29" cy="41.84" r="24.35"/>
	<path class="st0" d="M673.88,32.8c-11.65,6.73-26.54,2.74-33.27-8.91c-6.73-11.65-2.73-26.54,8.91-33.27
		c11.65-6.72,26.54-2.73,33.27,8.91C689.52,11.18,685.52,26.08,673.88,32.8z"/>
	<path class="st0" d="M666.92,2.67c-11.65-6.72-15.64-21.62-8.91-33.27c6.72-11.65,21.62-15.64,33.27-8.91
		c11.65,6.72,15.64,21.62,8.92,33.27C693.46,5.41,678.57,9.4,666.92,2.67z"/>
	<path class="st0" d="M689.53-18.42c0-13.45,10.9-24.35,24.35-24.35c13.45,0,24.35,10.9,24.35,24.35c0,13.45-10.9,24.35-24.35,24.35
		C700.44,5.94,689.53-4.97,689.53-18.42z"/>
	<path class="st0" d="M719.1-9.38c11.65-6.72,26.54-2.73,33.27,8.91c6.72,11.65,2.73,26.54-8.92,33.27
		c-11.65,6.73-26.54,2.73-33.27-8.91C703.46,12.24,707.45-2.65,719.1-9.38z"/>
	<path class="st0" d="M726.06,20.75c11.65,6.72,15.64,21.62,8.92,33.27c-6.72,11.65-21.62,15.64-33.27,8.91
		c-11.65-6.72-15.64-21.62-8.91-33.27C699.52,18.02,714.41,14.03,726.06,20.75z"/>
	<circle class="st0" cx="679.09" cy="41.84" r="24.35"/>
	<path class="st0" d="M568.68,32.8c-11.65,6.73-26.54,2.74-33.27-8.91c-6.73-11.65-2.73-26.54,8.91-33.27
		c11.65-6.72,26.54-2.73,33.27,8.91C584.32,11.18,580.33,26.08,568.68,32.8z"/>
	<path class="st0" d="M561.72,2.67c-11.65-6.72-15.64-21.62-8.91-33.27c6.72-11.65,21.62-15.64,33.27-8.91
		c11.65,6.72,15.64,21.62,8.92,33.27C588.27,5.41,573.37,9.4,561.72,2.67z"/>
	<path class="st0" d="M584.34-18.42c0-13.45,10.9-24.35,24.35-24.35c13.45,0,24.35,10.9,24.35,24.35c0,13.45-10.9,24.35-24.35,24.35
		C595.24,5.94,584.34-4.97,584.34-18.42z"/>
	<path class="st0" d="M613.91-9.38c11.65-6.72,26.54-2.73,33.27,8.91c6.72,11.65,2.73,26.54-8.92,33.27
		c-11.65,6.73-26.54,2.73-33.27-8.91C598.27,12.24,602.26-2.65,613.91-9.38z"/>
	<path class="st0" d="M620.87,20.75c11.65,6.72,15.64,21.62,8.92,33.27c-6.72,11.65-21.62,15.64-33.27,8.91
		c-11.65-6.72-15.64-21.62-8.91-33.27C594.33,18.02,609.22,14.03,620.87,20.75z"/>
	<circle class="st0" cx="573.9" cy="41.84" r="24.35"/>
	<path class="st0" d="M463.49,32.8c-11.65,6.73-26.54,2.74-33.27-8.91c-6.73-11.65-2.73-26.54,8.91-33.27
		c11.65-6.72,26.54-2.73,33.27,8.91C479.13,11.18,475.14,26.08,463.49,32.8z"/>
	<path class="st0" d="M456.53,2.67c-11.65-6.72-15.64-21.62-8.91-33.27c6.72-11.65,21.62-15.64,33.27-8.91
		c11.65,6.72,15.64,21.62,8.92,33.27C483.07,5.41,468.18,9.4,456.53,2.67z"/>
	<path class="st0" d="M479.14-18.42c0-13.45,10.9-24.35,24.35-24.35c13.45,0,24.35,10.9,24.35,24.35c0,13.45-10.9,24.35-24.35,24.35
		C490.05,5.94,479.14-4.97,479.14-18.42z"/>
	<path class="st0" d="M508.72-9.38c11.65-6.72,26.54-2.73,33.27,8.91c6.72,11.65,2.73,26.54-8.92,33.27
		c-11.65,6.73-26.54,2.73-33.27-8.91C493.08,12.24,497.07-2.65,508.72-9.38z"/>
	<path class="st0" d="M515.67,20.75c11.65,6.72,15.64,21.62,8.92,33.27c-6.72,11.65-21.62,15.64-33.27,8.91
		c-11.65-6.72-15.64-21.62-8.91-33.27C489.13,18.02,504.02,14.03,515.67,20.75z"/>
	<circle class="st0" cx="468.71" cy="41.84" r="24.35"/>
	<path class="st0" d="M358.29,32.8c-11.65,6.73-26.54,2.74-33.27-8.91c-6.73-11.65-2.73-26.54,8.91-33.27
		c11.65-6.72,26.54-2.73,33.27,8.91C373.93,11.18,369.94,26.08,358.29,32.8z"/>
	<path class="st0" d="M351.34,2.67c-11.65-6.72-15.64-21.62-8.91-33.27c6.72-11.65,21.62-15.64,33.27-8.91
		c11.65,6.72,15.64,21.62,8.92,33.27C377.88,5.41,362.98,9.4,351.34,2.67z"/>
	<path class="st0" d="M373.95-18.42c0-13.45,10.9-24.35,24.35-24.35c13.45,0,24.35,10.9,24.35,24.35c0,13.45-10.9,24.35-24.35,24.35
		C384.85,5.94,373.95-4.97,373.95-18.42z"/>
	<path class="st0" d="M403.52-9.38c11.65-6.72,26.54-2.73,33.27,8.91c6.72,11.65,2.73,26.54-8.92,33.27
		c-11.65,6.73-26.54,2.73-33.27-8.91C387.88,12.24,391.87-2.65,403.52-9.38z"/>
	<path class="st0" d="M410.48,20.75c11.65,6.72,15.64,21.62,8.92,33.27c-6.72,11.65-21.62,15.64-33.27,8.91
		c-11.65-6.72-15.64-21.62-8.91-33.27C383.94,18.02,398.83,14.03,410.48,20.75z"/>
	<circle class="st0" cx="363.51" cy="41.84" r="24.35"/>
	<path class="st0" d="M253.1,32.8c-11.65,6.73-26.54,2.74-33.27-8.91c-6.73-11.65-2.73-26.54,8.91-33.27
		c11.65-6.72,26.54-2.73,33.27,8.91C268.74,11.18,264.75,26.08,253.1,32.8z"/>
	<path class="st0" d="M246.14,2.67c-11.65-6.72-15.64-21.62-8.91-33.27c6.72-11.65,21.62-15.64,33.27-8.91
		c11.65,6.72,15.64,21.62,8.92,33.27C272.68,5.41,257.79,9.4,246.14,2.67z"/>
	<path class="st0" d="M268.76-18.42c0-13.45,10.9-24.35,24.35-24.35c13.45,0,24.35,10.9,24.35,24.35c0,13.45-10.9,24.35-24.35,24.35
		C279.66,5.94,268.76-4.97,268.76-18.42z"/>
	<path class="st0" d="M298.33-9.38c11.65-6.72,26.54-2.73,33.27,8.91c6.72,11.65,2.73,26.54-8.92,33.27
		c-11.65,6.73-26.54,2.73-33.27-8.91C282.69,12.24,286.68-2.65,298.33-9.38z"/>
	<path class="st0" d="M305.29,20.75c11.65,6.72,15.64,21.62,8.92,33.27c-6.72,11.65-21.62,15.64-33.27,8.91
		c-11.65-6.72-15.64-21.62-8.91-33.27C278.74,18.02,293.64,14.03,305.29,20.75z"/>
	<circle class="st0" cx="258.32" cy="41.84" r="24.35"/>
	<path class="st0" d="M147.91,32.8c-11.65,6.73-26.54,2.74-33.27-8.91c-6.73-11.65-2.73-26.54,8.91-33.27
		c11.65-6.72,26.54-2.73,33.27,8.91C163.55,11.18,159.55,26.08,147.91,32.8z"/>
	<path class="st0" d="M140.95,2.67c-11.65-6.72-15.64-21.62-8.91-33.27c6.72-11.65,21.62-15.64,33.27-8.91
		c11.65,6.72,15.64,21.62,8.92,33.27C167.49,5.41,152.6,9.4,140.95,2.67z"/>
	<path class="st0" d="M163.56-18.42c0-13.45,10.9-24.35,24.35-24.35c13.45,0,24.35,10.9,24.35,24.35c0,13.45-10.9,24.35-24.35,24.35
		C174.46,5.94,163.56-4.97,163.56-18.42z"/>
	<path class="st0" d="M193.13-9.38c11.65-6.72,26.54-2.73,33.27,8.91c6.72,11.65,2.73,26.54-8.92,33.27
		c-11.65,6.73-26.54,2.73-33.27-8.91C177.49,12.24,181.48-2.65,193.13-9.38z"/>
	<path class="st0" d="M200.09,20.75c11.65,6.72,15.64,21.62,8.92,33.27c-6.72,11.65-21.62,15.64-33.27,8.91
		c-11.65-6.72-15.64-21.62-8.91-33.27C173.55,18.02,188.44,14.03,200.09,20.75z"/>
	<circle class="st0" cx="153.12" cy="41.84" r="24.35"/>
	<path class="st0" d="M42.71,32.8c-11.65,6.73-26.54,2.74-33.27-8.91C2.72,12.24,6.71-2.65,18.36-9.38
		c11.65-6.72,26.54-2.73,33.27,8.91C58.35,11.18,54.36,26.08,42.71,32.8z"/>
	<path class="st0" d="M35.75,2.67c-11.65-6.72-15.64-21.62-8.91-33.27c6.72-11.65,21.62-15.64,33.27-8.91
		c11.65,6.72,15.64,21.62,8.92,33.27C62.3,5.41,47.4,9.4,35.75,2.67z"/>
	<path class="st0" d="M58.37-18.42c0-13.45,10.9-24.35,24.35-24.35c13.45,0,24.35,10.9,24.35,24.35c0,13.45-10.9,24.35-24.35,24.35
		C69.27,5.94,58.37-4.97,58.37-18.42z"/>
	<path class="st0" d="M87.94-9.38c11.65-6.72,26.54-2.73,33.27,8.91c6.72,11.65,2.73,26.54-8.92,33.27
		c-11.65,6.73-26.54,2.73-33.27-8.91C72.3,12.24,76.29-2.65,87.94-9.38z"/>
	<path class="st0" d="M94.9,20.75c11.65,6.72,15.64,21.62,8.92,33.27c-6.72,11.65-21.62,15.64-33.27,8.91
		c-11.65-6.72-15.64-21.62-8.91-33.27C68.36,18.02,83.25,14.03,94.9,20.75z"/>
	<circle class="st0" cx="47.93" cy="41.84" r="24.35"/>
	<path class="st0" d="M-69.44,2.67c-11.65-6.72-15.64-21.62-8.91-33.27c6.72-11.65,21.62-15.64,33.27-8.91
		c11.65,6.72,15.64,21.62,8.92,33.27C-42.9,5.41-57.79,9.4-69.44,2.67z"/>
	<path class="st0" d="M-46.83-18.42c0-13.45,10.9-24.35,24.35-24.35c13.45,0,24.35,10.9,24.35,24.35c0,13.45-10.9,24.35-24.35,24.35
		C-35.92,5.94-46.83-4.97-46.83-18.42z"/>
	<path class="st0" d="M-17.25-9.38c11.65-6.72,26.54-2.73,33.27,8.91c6.72,11.65,2.73,26.54-8.92,33.27
		c-11.65,6.73-26.54,2.73-33.27-8.91C-32.9,12.24-28.9-2.65-17.25-9.38z"/>
	<path class="st0" d="M-10.3,20.75C1.35,27.48,5.34,42.37-1.38,54.02C-8.11,65.67-23,69.66-34.65,62.93
		c-11.65-6.72-15.64-21.62-8.91-33.27C-36.84,18.02-21.95,14.03-10.3,20.75z"/>
	<circle class="st0" cx="-57.26" cy="41.84" r="24.35"/>
	<path class="st0" d="M1988.8,121.56c-11.65,6.73-26.54,2.74-33.27-8.91c-6.73-11.65-2.73-26.54,8.91-33.27
		c11.65-6.72,26.54-2.73,33.27,8.91C2004.44,99.94,2000.45,114.84,1988.8,121.56z"/>
	<path class="st0" d="M1981.84,91.43c-11.65-6.72-15.64-21.62-8.91-33.27c6.72-11.65,21.62-15.64,33.27-8.91
		c11.65,6.72,15.64,21.62,8.92,33.27C2008.39,94.17,1993.49,98.16,1981.84,91.43z"/>
	<circle class="st0" cx="1994.02" cy="130.6" r="24.35"/>
	<path class="st0" d="M1883.61,121.56c-11.65,6.73-26.54,2.74-33.27-8.91c-6.73-11.65-2.73-26.54,8.91-33.27
		c11.65-6.72,26.54-2.73,33.27,8.91C1899.25,99.94,1895.26,114.84,1883.61,121.56z"/>
	<path class="st0" d="M1876.65,91.43c-11.65-6.72-15.64-21.62-8.91-33.27c6.72-11.65,21.62-15.64,33.27-8.91
		c11.65,6.72,15.64,21.62,8.92,33.27C1903.19,94.17,1888.3,98.16,1876.65,91.43z"/>
	<path class="st0" d="M1899.26,70.34c0-13.45,10.9-24.35,24.35-24.35c13.45,0,24.35,10.9,24.35,24.35
		c0,13.45-10.9,24.35-24.35,24.35C1910.17,94.7,1899.26,83.79,1899.26,70.34z"/>
	<path class="st0" d="M1928.84,79.38c11.65-6.72,26.54-2.73,33.27,8.91c6.72,11.65,2.73,26.54-8.92,33.27
		c-11.65,6.73-26.54,2.73-33.27-8.91C1913.2,101,1917.19,86.11,1928.84,79.38z"/>
	<path class="st0" d="M1935.79,109.51c11.65,6.72,15.64,21.62,8.92,33.27c-6.72,11.65-21.62,15.64-33.27,8.91
		c-11.65-6.72-15.64-21.62-8.91-33.27C1909.25,106.77,1924.15,102.78,1935.79,109.51z"/>
	<circle class="st0" cx="1888.83" cy="130.6" r="24.35"/>
	<path class="st0" d="M1778.41,121.56c-11.65,6.73-26.54,2.74-33.27-8.91c-6.73-11.65-2.73-26.54,8.91-33.27
		c11.65-6.72,26.54-2.73,33.27,8.91C1794.05,99.94,1790.06,114.84,1778.41,121.56z"/>
	<path class="st0" d="M1771.46,91.43c-11.65-6.72-15.64-21.62-8.91-33.27c6.72-11.65,21.62-15.64,33.27-8.91
		c11.65,6.72,15.64,21.62,8.92,33.27C1798,94.17,1783.1,98.16,1771.46,91.43z"/>
	<path class="st0" d="M1794.07,70.34c0-13.45,10.9-24.35,24.35-24.35c13.45,0,24.35,10.9,24.35,24.35
		c0,13.45-10.9,24.35-24.35,24.35C1804.97,94.7,1794.07,83.79,1794.07,70.34z"/>
	<path class="st0" d="M1823.64,79.38c11.65-6.72,26.54-2.73,33.27,8.91c6.72,11.65,2.73,26.54-8.92,33.27
		c-11.65,6.73-26.54,2.73-33.27-8.91C1808,101,1811.99,86.11,1823.64,79.38z"/>
	<path class="st0" d="M1830.6,109.51c11.65,6.72,15.64,21.62,8.92,33.27c-6.72,11.65-21.62,15.64-33.27,8.91
		c-11.65-6.72-15.64-21.62-8.91-33.27C1804.06,106.77,1818.95,102.78,1830.6,109.51z"/>
	<circle class="st0" cx="1783.63" cy="130.6" r="24.35"/>
	<path class="st0" d="M1673.22,121.56c-11.65,6.73-26.54,2.74-33.27-8.91c-6.73-11.65-2.73-26.54,8.91-33.27
		c11.65-6.72,26.54-2.73,33.27,8.91C1688.86,99.94,1684.87,114.84,1673.22,121.56z"/>
	<path class="st0" d="M1666.26,91.43c-11.65-6.72-15.64-21.62-8.91-33.27c6.72-11.65,21.62-15.64,33.27-8.91
		c11.65,6.72,15.64,21.62,8.92,33.27C1692.81,94.17,1677.91,98.16,1666.26,91.43z"/>
	<path class="st0" d="M1688.88,70.34c0-13.45,10.9-24.35,24.35-24.35c13.45,0,24.35,10.9,24.35,24.35
		c0,13.45-10.9,24.35-24.35,24.35C1699.78,94.7,1688.88,83.79,1688.88,70.34z"/>
	<path class="st0" d="M1718.45,79.38c11.65-6.72,26.54-2.73,33.27,8.91c6.72,11.65,2.73,26.54-8.92,33.27
		c-11.65,6.73-26.54,2.73-33.27-8.91C1702.81,101,1706.8,86.11,1718.45,79.38z"/>
	<path class="st0" d="M1725.41,109.51c11.65,6.72,15.64,21.62,8.92,33.27c-6.72,11.65-21.62,15.64-33.27,8.91
		c-11.65-6.72-15.64-21.62-8.91-33.27C1698.86,106.77,1713.76,102.78,1725.41,109.51z"/>
	<circle class="st0" cx="1678.44" cy="130.6" r="24.35"/>
	<path class="st0" d="M1568.03,121.56c-11.65,6.73-26.54,2.74-33.27-8.91c-6.73-11.65-2.73-26.54,8.91-33.27
		c11.65-6.72,26.54-2.73,33.27,8.91C1583.67,99.94,1579.67,114.84,1568.03,121.56z"/>
	<path class="st0" d="M1561.07,91.43c-11.65-6.72-15.64-21.62-8.91-33.27c6.72-11.65,21.62-15.64,33.27-8.91
		c11.65,6.72,15.64,21.62,8.92,33.27C1587.61,94.17,1572.72,98.16,1561.07,91.43z"/>
	<path class="st0" d="M1583.68,70.34c0-13.45,10.9-24.35,24.35-24.35c13.45,0,24.35,10.9,24.35,24.35
		c0,13.45-10.9,24.35-24.35,24.35C1594.59,94.7,1583.68,83.79,1583.68,70.34z"/>
	<path class="st0" d="M1613.25,79.38c11.65-6.72,26.54-2.73,33.27,8.91c6.72,11.65,2.73,26.54-8.92,33.27
		c-11.65,6.73-26.54,2.73-33.27-8.91C1597.61,101,1601.6,86.11,1613.25,79.38z"/>
	<path class="st0" d="M1620.21,109.51c11.65,6.72,15.64,21.62,8.92,33.27c-6.72,11.65-21.62,15.64-33.27,8.91
		c-11.65-6.72-15.64-21.62-8.91-33.27C1593.67,106.77,1608.56,102.78,1620.21,109.51z"/>
	<circle class="st0" cx="1573.24" cy="130.6" r="24.35"/>
	<path class="st0" d="M1462.83,121.56c-11.65,6.73-26.54,2.74-33.27-8.91c-6.73-11.65-2.73-26.54,8.91-33.27
		c11.65-6.72,26.54-2.73,33.27,8.91C1478.47,99.94,1474.48,114.84,1462.83,121.56z"/>
	<path class="st0" d="M1455.87,91.43c-11.65-6.72-15.64-21.62-8.91-33.27c6.72-11.65,21.62-15.64,33.27-8.91
		c11.65,6.72,15.64,21.62,8.92,33.27C1482.42,94.17,1467.52,98.16,1455.87,91.43z"/>
	<path class="st0" d="M1478.49,70.34c0-13.45,10.9-24.35,24.35-24.35c13.45,0,24.35,10.9,24.35,24.35
		c0,13.45-10.9,24.35-24.35,24.35C1489.39,94.7,1478.49,83.79,1478.49,70.34z"/>
	<path class="st0" d="M1508.06,79.38c11.65-6.72,26.54-2.73,33.27,8.91c6.72,11.65,2.73,26.54-8.92,33.27
		c-11.65,6.73-26.54,2.73-33.27-8.91C1492.42,101,1496.41,86.11,1508.06,79.38z"/>
	<path class="st0" d="M1515.02,109.51c11.65,6.72,15.64,21.62,8.92,33.27c-6.72,11.65-21.62,15.64-33.27,8.91
		c-11.65-6.72-15.64-21.62-8.91-33.27C1488.48,106.77,1503.37,102.78,1515.02,109.51z"/>
	<circle class="st0" cx="1468.05" cy="130.6" r="24.35"/>
	<path class="st0" d="M1357.64,121.56c-11.65,6.73-26.54,2.74-33.27-8.91c-6.73-11.65-2.73-26.54,8.91-33.27
		c11.65-6.72,26.54-2.73,33.27,8.91C1373.28,99.94,1369.29,114.84,1357.64,121.56z"/>
	<path class="st0" d="M1350.68,91.43c-11.65-6.72-15.64-21.62-8.91-33.27c6.72-11.65,21.62-15.64,33.27-8.91
		c11.65,6.72,15.64,21.62,8.92,33.27C1377.22,94.17,1362.33,98.16,1350.68,91.43z"/>
	<path class="st0" d="M1373.29,70.34c0-13.45,10.9-24.35,24.35-24.35c13.45,0,24.35,10.9,24.35,24.35
		c0,13.45-10.9,24.35-24.35,24.35C1384.2,94.7,1373.29,83.79,1373.29,70.34z"/>
	<path class="st0" d="M1402.87,79.38c11.65-6.72,26.54-2.73,33.27,8.91c6.72,11.65,2.73,26.54-8.92,33.27
		c-11.65,6.73-26.54,2.73-33.27-8.91C1387.23,101,1391.22,86.11,1402.87,79.38z"/>
	<path class="st0" d="M1409.82,109.51c11.65,6.72,15.64,21.62,8.92,33.27c-6.72,11.65-21.62,15.64-33.27,8.91
		c-11.65-6.72-15.64-21.62-8.91-33.27C1383.28,106.77,1398.17,102.78,1409.82,109.51z"/>
	<circle class="st0" cx="1362.86" cy="130.6" r="24.35"/>
	<path class="st0" d="M1252.44,121.56c-11.65,6.73-26.54,2.74-33.27-8.91c-6.73-11.65-2.73-26.54,8.91-33.27
		c11.65-6.72,26.54-2.73,33.27,8.91C1268.08,99.94,1264.09,114.84,1252.44,121.56z"/>
	<path class="st0" d="M1245.49,91.43c-11.65-6.72-15.64-21.62-8.91-33.27c6.72-11.65,21.62-15.64,33.27-8.91
		c11.65,6.72,15.64,21.62,8.92,33.27C1272.03,94.17,1257.13,98.16,1245.49,91.43z"/>
	<path class="st0" d="M1268.1,70.34c0-13.45,10.9-24.35,24.35-24.35c13.45,0,24.35,10.9,24.35,24.35c0,13.45-10.9,24.35-24.35,24.35
		C1279,94.7,1268.1,83.79,1268.1,70.34z"/>
	<path class="st0" d="M1297.67,79.38c11.65-6.72,26.54-2.73,33.27,8.91c6.72,11.65,2.73,26.54-8.92,33.27
		c-11.65,6.73-26.54,2.73-33.27-8.91C1282.03,101,1286.02,86.11,1297.67,79.38z"/>
	<path class="st0" d="M1304.63,109.51c11.65,6.72,15.64,21.62,8.92,33.27c-6.72,11.65-21.62,15.64-33.27,8.91
		c-11.65-6.72-15.64-21.62-8.91-33.27C1278.09,106.77,1292.98,102.78,1304.63,109.51z"/>
	<circle class="st0" cx="1257.66" cy="130.6" r="24.35"/>
	<path class="st0" d="M1147.25,121.56c-11.65,6.73-26.54,2.74-33.27-8.91c-6.73-11.65-2.73-26.54,8.91-33.27
		c11.65-6.72,26.54-2.73,33.27,8.91C1162.89,99.94,1158.9,114.84,1147.25,121.56z"/>
	<path class="st0" d="M1140.29,91.43c-11.65-6.72-15.64-21.62-8.91-33.27c6.72-11.65,21.62-15.64,33.27-8.91
		c11.65,6.72,15.64,21.62,8.92,33.27C1166.83,94.17,1151.94,98.16,1140.29,91.43z"/>
	<path class="st0" d="M1162.91,70.34c0-13.45,10.9-24.35,24.35-24.35c13.45,0,24.35,10.9,24.35,24.35
		c0,13.45-10.9,24.35-24.35,24.35C1173.81,94.7,1162.91,83.79,1162.91,70.34z"/>
	<path class="st0" d="M1192.48,79.38c11.65-6.72,26.54-2.73,33.27,8.91c6.72,11.65,2.73,26.54-8.92,33.27
		c-11.65,6.73-26.54,2.73-33.27-8.91C1176.84,101,1180.83,86.11,1192.48,79.38z"/>
	<path class="st0" d="M1199.44,109.51c11.65,6.72,15.64,21.62,8.92,33.27c-6.72,11.65-21.62,15.64-33.27,8.91
		c-11.65-6.72-15.64-21.62-8.91-33.27C1172.89,106.77,1187.79,102.78,1199.44,109.51z"/>
	<circle class="st0" cx="1152.47" cy="130.6" r="24.35"/>
	<path class="st0" d="M1042.06,121.56c-11.65,6.73-26.54,2.74-33.27-8.91c-6.73-11.65-2.73-26.54,8.91-33.27
		c11.65-6.72,26.54-2.73,33.27,8.91C1057.7,99.94,1053.7,114.84,1042.06,121.56z"/>
	<path class="st0" d="M1035.1,91.43c-11.65-6.72-15.64-21.62-8.91-33.27c6.72-11.65,21.62-15.64,33.27-8.91
		c11.65,6.72,15.64,21.62,8.92,33.27C1061.64,94.17,1046.75,98.16,1035.1,91.43z"/>
	<path class="st0" d="M1057.71,70.34c0-13.45,10.9-24.35,24.35-24.35c13.45,0,24.35,10.9,24.35,24.35
		c0,13.45-10.9,24.35-24.35,24.35C1068.61,94.7,1057.71,83.79,1057.71,70.34z"/>
	<path class="st0" d="M1087.28,79.38c11.65-6.72,26.54-2.73,33.27,8.91c6.72,11.65,2.73,26.54-8.92,33.27
		c-11.65,6.73-26.54,2.73-33.27-8.91C1071.64,101,1075.63,86.11,1087.28,79.38z"/>
	<path class="st0" d="M1094.24,109.51c11.65,6.72,15.64,21.62,8.92,33.27c-6.72,11.65-21.62,15.64-33.27,8.91
		c-11.65-6.72-15.64-21.62-8.91-33.27C1067.7,106.77,1082.59,102.78,1094.24,109.51z"/>
	<circle class="st0" cx="1047.27" cy="130.6" r="24.35"/>
	<path class="st0" d="M936.86,121.56c-11.65,6.73-26.54,2.74-33.27-8.91c-6.73-11.65-2.73-26.54,8.91-33.27
		c11.65-6.72,26.54-2.73,33.27,8.91C952.5,99.94,948.51,114.84,936.86,121.56z"/>
	<path class="st0" d="M929.9,91.43c-11.65-6.72-15.64-21.62-8.91-33.27c6.72-11.65,21.62-15.64,33.27-8.91
		c11.65,6.72,15.64,21.62,8.92,33.27C956.45,94.17,941.55,98.16,929.9,91.43z"/>
	<path class="st0" d="M952.52,70.34c0-13.45,10.9-24.35,24.35-24.35c13.45,0,24.35,10.9,24.35,24.35c0,13.45-10.9,24.35-24.35,24.35
		C963.42,94.7,952.52,83.79,952.52,70.34z"/>
	<path class="st0" d="M982.09,79.38c11.65-6.72,26.54-2.73,33.27,8.91c6.72,11.65,2.73,26.54-8.92,33.27
		c-11.65,6.73-26.54,2.73-33.27-8.91C966.45,101,970.44,86.11,982.09,79.38z"/>
	<path class="st0" d="M989.05,109.51c11.65,6.72,15.64,21.62,8.92,33.27c-6.72,11.65-21.62,15.64-33.27,8.91
		c-11.65-6.72-15.64-21.62-8.91-33.27C962.51,106.77,977.4,102.78,989.05,109.51z"/>
	<circle class="st0" cx="942.08" cy="130.6" r="24.35"/>
	<path class="st0" d="M831.67,121.56c-11.65,6.73-26.54,2.74-33.27-8.91c-6.73-11.65-2.73-26.54,8.91-33.27
		c11.65-6.72,26.54-2.73,33.27,8.91C847.31,99.94,843.32,114.84,831.67,121.56z"/>
	<path class="st0" d="M824.71,91.43c-11.65-6.72-15.64-21.62-8.91-33.27c6.72-11.65,21.62-15.64,33.27-8.91
		c11.65,6.72,15.64,21.62,8.92,33.27C851.25,94.17,836.36,98.16,824.71,91.43z"/>
	<path class="st0" d="M847.32,70.34c0-13.45,10.9-24.35,24.35-24.35c13.45,0,24.35,10.9,24.35,24.35c0,13.45-10.9,24.35-24.35,24.35
		C858.23,94.7,847.32,83.79,847.32,70.34z"/>
	<path class="st0" d="M876.89,79.38c11.65-6.72,26.54-2.73,33.27,8.91c6.72,11.65,2.73,26.54-8.92,33.27
		c-11.65,6.73-26.54,2.73-33.27-8.91C861.25,101,865.25,86.11,876.89,79.38z"/>
	<path class="st0" d="M883.85,109.51c11.65,6.72,15.64,21.62,8.92,33.27c-6.72,11.65-21.62,15.64-33.27,8.91
		c-11.65-6.72-15.64-21.62-8.91-33.27C857.31,106.77,872.2,102.78,883.85,109.51z"/>
	<circle class="st0" cx="836.89" cy="130.6" r="24.35"/>
	<path class="st0" d="M726.47,121.56c-11.65,6.73-26.54,2.74-33.27-8.91c-6.73-11.65-2.73-26.54,8.91-33.27
		c11.65-6.72,26.54-2.73,33.27,8.91C742.11,99.94,738.12,114.84,726.47,121.56z"/>
	<path class="st0" d="M719.51,91.43c-11.65-6.72-15.64-21.62-8.91-33.27c6.72-11.65,21.62-15.64,33.27-8.91
		c11.65,6.72,15.64,21.62,8.92,33.27C746.06,94.17,731.16,98.16,719.51,91.43z"/>
	<path class="st0" d="M742.13,70.34c0-13.45,10.9-24.35,24.35-24.35c13.45,0,24.35,10.9,24.35,24.35c0,13.45-10.9,24.35-24.35,24.35
		C753.03,94.7,742.13,83.79,742.13,70.34z"/>
	<path class="st0" d="M771.7,79.38c11.65-6.72,26.54-2.73,33.27,8.91c6.72,11.65,2.73,26.54-8.92,33.27
		c-11.65,6.73-26.54,2.73-33.27-8.91C756.06,101,760.05,86.11,771.7,79.38z"/>
	<path class="st0" d="M778.66,109.51c11.65,6.72,15.64,21.62,8.92,33.27c-6.72,11.65-21.62,15.64-33.27,8.91
		c-11.65-6.72-15.64-21.62-8.91-33.27C752.12,106.77,767.01,102.78,778.66,109.51z"/>
	<circle class="st0" cx="731.69" cy="130.6" r="24.35"/>
	<path class="st0" d="M621.28,121.56c-11.65,6.73-26.54,2.74-33.27-8.91c-6.73-11.65-2.73-26.54,8.91-33.27
		c11.65-6.72,26.54-2.73,33.27,8.91C636.92,99.94,632.93,114.84,621.28,121.56z"/>
	<path class="st0" d="M614.32,91.43c-11.65-6.72-15.64-21.62-8.91-33.27c6.72-11.65,21.62-15.64,33.27-8.91
		c11.65,6.72,15.64,21.62,8.92,33.27C640.86,94.17,625.97,98.16,614.32,91.43z"/>
	<path class="st0" d="M636.93,70.34c0-13.45,10.9-24.35,24.35-24.35c13.45,0,24.35,10.9,24.35,24.35c0,13.45-10.9,24.35-24.35,24.35
		C647.84,94.7,636.93,83.79,636.93,70.34z"/>
	<path class="st0" d="M666.51,79.38c11.65-6.72,26.54-2.73,33.27,8.91c6.72,11.65,2.73,26.54-8.92,33.27
		c-11.65,6.73-26.54,2.73-33.27-8.91C650.87,101,654.86,86.11,666.51,79.38z"/>
	<path class="st0" d="M673.46,109.51c11.65,6.72,15.64,21.62,8.92,33.27c-6.72,11.65-21.62,15.64-33.27,8.91
		c-11.65-6.72-15.64-21.62-8.91-33.27C646.92,106.77,661.82,102.78,673.46,109.51z"/>
	<circle class="st0" cx="626.5" cy="130.6" r="24.35"/>
	<path class="st0" d="M516.08,121.56c-11.65,6.73-26.54,2.74-33.27-8.91c-6.73-11.65-2.73-26.54,8.91-33.27
		c11.65-6.72,26.54-2.73,33.27,8.91C531.72,99.94,527.73,114.84,516.08,121.56z"/>
	<path class="st0" d="M509.13,91.43c-11.65-6.72-15.64-21.62-8.91-33.27c6.72-11.65,21.62-15.64,33.27-8.91
		c11.65,6.72,15.64,21.62,8.92,33.27C535.67,94.17,520.78,98.16,509.13,91.43z"/>
	<path class="st0" d="M531.74,70.34c0-13.45,10.9-24.35,24.35-24.35c13.45,0,24.35,10.9,24.35,24.35c0,13.45-10.9,24.35-24.35,24.35
		C542.64,94.7,531.74,83.79,531.74,70.34z"/>
	<path class="st0" d="M561.31,79.38c11.65-6.72,26.54-2.73,33.27,8.91c6.72,11.65,2.73,26.54-8.92,33.27
		c-11.65,6.73-26.54,2.73-33.27-8.91C545.67,101,549.66,86.11,561.31,79.38z"/>
	<path class="st0" d="M568.27,109.51c11.65,6.72,15.64,21.62,8.92,33.27c-6.72,11.65-21.62,15.64-33.27,8.91
		c-11.65-6.72-15.64-21.62-8.91-33.27C541.73,106.77,556.62,102.78,568.27,109.51z"/>
	<circle class="st0" cx="521.3" cy="130.6" r="24.35"/>
	<path class="st0" d="M410.89,121.56c-11.65,6.73-26.54,2.74-33.27-8.91c-6.73-11.65-2.73-26.54,8.91-33.27
		c11.65-6.72,26.54-2.73,33.27,8.91C426.53,99.94,422.54,114.84,410.89,121.56z"/>
	<path class="st0" d="M403.93,91.43c-11.65-6.72-15.64-21.62-8.91-33.27c6.72-11.65,21.62-15.64,33.27-8.91
		c11.65,6.72,15.64,21.62,8.92,33.27C430.48,94.17,415.58,98.16,403.93,91.43z"/>
	<path class="st0" d="M426.55,70.34c0-13.45,10.9-24.35,24.35-24.35c13.45,0,24.35,10.9,24.35,24.35c0,13.45-10.9,24.35-24.35,24.35
		C437.45,94.7,426.55,83.79,426.55,70.34z"/>
	<path class="st0" d="M456.12,79.38c11.65-6.72,26.54-2.73,33.27,8.91c6.72,11.65,2.73,26.54-8.92,33.27
		c-11.65,6.73-26.54,2.73-33.27-8.91C440.48,101,444.47,86.11,456.12,79.38z"/>
	<path class="st0" d="M463.08,109.51c11.65,6.72,15.64,21.62,8.92,33.27c-6.72,11.65-21.62,15.64-33.27,8.91
		c-11.65-6.72-15.64-21.62-8.91-33.27C436.54,106.77,451.43,102.78,463.08,109.51z"/>
	<circle class="st0" cx="416.11" cy="130.6" r="24.35"/>
	<path class="st0" d="M305.7,121.56c-11.65,6.73-26.54,2.74-33.27-8.91c-6.73-11.65-2.73-26.54,8.91-33.27
		c11.65-6.72,26.54-2.73,33.27,8.91C321.34,99.94,317.35,114.84,305.7,121.56z"/>
	<path class="st0" d="M298.74,91.43c-11.65-6.72-15.64-21.62-8.91-33.27c6.72-11.65,21.62-15.64,33.27-8.91
		c11.65,6.72,15.64,21.62,8.92,33.27C325.28,94.17,310.39,98.16,298.74,91.43z"/>
	<path class="st0" d="M321.35,70.34c0-13.45,10.9-24.35,24.35-24.35c13.45,0,24.35,10.9,24.35,24.35c0,13.45-10.9,24.35-24.35,24.35
		C332.26,94.7,321.35,83.79,321.35,70.34z"/>
	<path class="st0" d="M350.92,79.38c11.65-6.72,26.54-2.73,33.27,8.91c6.72,11.65,2.73,26.54-8.92,33.27
		c-11.65,6.73-26.54,2.73-33.27-8.91C335.28,101,339.28,86.11,350.92,79.38z"/>
	<path class="st0" d="M357.88,109.51c11.65,6.72,15.64,21.62,8.92,33.27c-6.72,11.65-21.62,15.64-33.27,8.91
		c-11.65-6.72-15.64-21.62-8.91-33.27C331.34,106.77,346.23,102.78,357.88,109.51z"/>
	<circle class="st0" cx="310.92" cy="130.6" r="24.35"/>
	<path class="st0" d="M200.5,121.56c-11.65,6.73-26.54,2.74-33.27-8.91c-6.73-11.65-2.73-26.54,8.91-33.27
		c11.65-6.72,26.54-2.73,33.27,8.91C216.14,99.94,212.15,114.84,200.5,121.56z"/>
	<path class="st0" d="M193.54,91.43c-11.65-6.72-15.64-21.62-8.91-33.27c6.72-11.65,21.62-15.64,33.27-8.91
		c11.65,6.72,15.64,21.62,8.92,33.27C220.09,94.17,205.19,98.16,193.54,91.43z"/>
	<path class="st0" d="M216.16,70.34c0-13.45,10.9-24.35,24.35-24.35c13.45,0,24.35,10.9,24.35,24.35c0,13.45-10.9,24.35-24.35,24.35
		C227.06,94.7,216.16,83.79,216.16,70.34z"/>
	<path class="st0" d="M245.73,79.38c11.65-6.72,26.54-2.73,33.27,8.91c6.72,11.65,2.73,26.54-8.92,33.27
		c-11.65,6.73-26.54,2.73-33.27-8.91C230.09,101,234.08,86.11,245.73,79.38z"/>
	<path class="st0" d="M252.69,109.51c11.65,6.72,15.64,21.62,8.92,33.27c-6.72,11.65-21.62,15.64-33.27,8.91
		c-11.65-6.72-15.64-21.62-8.91-33.27C226.15,106.77,241.04,102.78,252.69,109.51z"/>
	<circle class="st0" cx="205.72" cy="130.6" r="24.35"/>
	<path class="st0" d="M95.31,121.56c-11.65,6.73-26.54,2.74-33.27-8.91C55.31,101,59.31,86.1,70.95,79.38
		c11.65-6.72,26.54-2.73,33.27,8.91C110.95,99.94,106.96,114.84,95.31,121.56z"/>
	<path class="st0" d="M88.35,91.43c-11.65-6.72-15.64-21.62-8.91-33.27c6.72-11.65,21.62-15.64,33.27-8.91
		c11.65,6.72,15.64,21.62,8.92,33.27C114.89,94.17,100,98.16,88.35,91.43z"/>
	<path class="st0" d="M110.96,70.34c0-13.45,10.9-24.35,24.35-24.35c13.45,0,24.35,10.9,24.35,24.35c0,13.45-10.9,24.35-24.35,24.35
		C121.87,94.7,110.96,83.79,110.96,70.34z"/>
	<path class="st0" d="M140.54,79.38c11.65-6.72,26.54-2.73,33.27,8.91c6.72,11.65,2.73,26.54-8.92,33.27
		c-11.65,6.73-26.54,2.73-33.27-8.91C124.9,101,128.89,86.11,140.54,79.38z"/>
	<path class="st0" d="M147.49,109.51c11.65,6.72,15.64,21.62,8.92,33.27c-6.72,11.65-21.62,15.64-33.27,8.91
		c-11.65-6.72-15.64-21.62-8.91-33.27C120.95,106.77,135.85,102.78,147.49,109.51z"/>
	<circle class="st0" cx="100.53" cy="130.6" r="24.35"/>
	<path class="st0" d="M-9.89,121.56c-11.65,6.73-26.54,2.74-33.27-8.91c-6.73-11.65-2.73-26.54,8.91-33.27
		c11.65-6.72,26.54-2.73,33.27,8.91C5.75,99.94,1.76,114.84-9.89,121.56z"/>
	<path class="st0" d="M-16.84,91.43c-11.65-6.72-15.64-21.62-8.91-33.27c6.72-11.65,21.62-15.64,33.27-8.91
		c11.65,6.72,15.64,21.62,8.92,33.27C9.7,94.17-5.19,98.16-16.84,91.43z"/>
	<path class="st0" d="M5.77,70.34c0-13.45,10.9-24.35,24.35-24.35c13.45,0,24.35,10.9,24.35,24.35c0,13.45-10.9,24.35-24.35,24.35
		C16.67,94.7,5.77,83.79,5.77,70.34z"/>
	<path class="st0" d="M35.34,79.38c11.65-6.72,26.54-2.73,33.27,8.91c6.72,11.65,2.73,26.54-8.92,33.27
		c-11.65,6.73-26.54,2.73-33.27-8.91C19.7,101,23.69,86.11,35.34,79.38z"/>
	<path class="st0" d="M42.3,109.51c11.65,6.72,15.64,21.62,8.92,33.27c-6.72,11.65-21.62,15.64-33.27,8.91
		c-11.65-6.72-15.64-21.62-8.91-33.27C15.76,106.77,30.65,102.78,42.3,109.51z"/>
	<circle class="st0" cx="-4.67" cy="130.6" r="24.35"/>
	<path class="st0" d="M-69.85,79.38c11.65-6.72,26.54-2.73,33.27,8.91c6.72,11.65,2.73,26.54-8.92,33.27
		c-11.65,6.73-26.54,2.73-33.27-8.91C-85.49,101-81.5,86.11-69.85,79.38z"/>
	<path class="st0" d="M1936.21,210.32c-11.65,6.73-26.54,2.74-33.27-8.91c-6.73-11.65-2.73-26.54,8.91-33.27
		c11.65-6.72,26.54-2.73,33.27,8.91C1951.85,188.7,1947.85,203.59,1936.21,210.32z"/>
	<path class="st0" d="M1929.25,180.19c-11.65-6.72-15.64-21.62-8.91-33.27c6.72-11.65,21.62-15.64,33.27-8.91
		c11.65,6.72,15.64,21.62,8.92,33.27C1955.79,182.92,1940.9,186.91,1929.25,180.19z"/>
	<path class="st0" d="M1951.86,159.1c0-13.45,10.9-24.35,24.35-24.35c13.45,0,24.35,10.9,24.35,24.35
		c0,13.45-10.9,24.35-24.35,24.35C1962.76,183.45,1951.86,172.55,1951.86,159.1z"/>
	<path class="st0" d="M1981.43,168.14c11.65-6.72,26.54-2.73,33.27,8.91c6.72,11.65,2.73,26.54-8.92,33.27
		c-11.65,6.73-26.54,2.73-33.27-8.91C1965.79,189.76,1969.78,174.86,1981.43,168.14z"/>
	<path class="st0" d="M1988.39,198.27c11.65,6.72,15.64,21.62,8.92,33.27c-6.72,11.65-21.62,15.64-33.27,8.91
		c-11.65-6.72-15.64-21.62-8.91-33.27C1961.85,195.53,1976.74,191.54,1988.39,198.27z"/>
	<circle class="st0" cx="1941.42" cy="219.36" r="24.35"/>
	<path class="st0" d="M1831.01,210.32c-11.65,6.73-26.54,2.74-33.27-8.91c-6.73-11.65-2.73-26.54,8.91-33.27
		c11.65-6.72,26.54-2.73,33.27,8.91C1846.65,188.7,1842.66,203.59,1831.01,210.32z"/>
	<path class="st0" d="M1824.05,180.19c-11.65-6.72-15.64-21.62-8.91-33.27c6.72-11.65,21.62-15.64,33.27-8.91
		c11.65,6.72,15.64,21.62,8.92,33.27C1850.6,182.92,1835.7,186.91,1824.05,180.19z"/>
	<path class="st0" d="M1846.67,159.1c0-13.45,10.9-24.35,24.35-24.35c13.45,0,24.35,10.9,24.35,24.35
		c0,13.45-10.9,24.35-24.35,24.35C1857.57,183.45,1846.67,172.55,1846.67,159.1z"/>
	<path class="st0" d="M1876.24,168.14c11.65-6.72,26.54-2.73,33.27,8.91c6.72,11.65,2.73,26.54-8.92,33.27
		c-11.65,6.73-26.54,2.73-33.27-8.91C1860.6,189.76,1864.59,174.86,1876.24,168.14z"/>
	<path class="st0" d="M1883.2,198.27c11.65,6.72,15.64,21.62,8.92,33.27c-6.72,11.65-21.62,15.64-33.27,8.91
		c-11.65-6.72-15.64-21.62-8.91-33.27C1856.66,195.53,1871.55,191.54,1883.2,198.27z"/>
	<circle class="st0" cx="1836.23" cy="219.36" r="24.35"/>
	<path class="st0" d="M1725.82,210.32c-11.65,6.73-26.54,2.74-33.27-8.91c-6.73-11.65-2.73-26.54,8.91-33.27
		c11.65-6.72,26.54-2.73,33.27,8.91C1741.46,188.7,1737.47,203.59,1725.82,210.32z"/>
	<path class="st0" d="M1718.86,180.19c-11.65-6.72-15.64-21.62-8.91-33.27c6.72-11.65,21.62-15.64,33.27-8.91
		c11.65,6.72,15.64,21.62,8.92,33.27C1745.4,182.92,1730.51,186.91,1718.86,180.19z"/>
	<path class="st0" d="M1741.47,159.1c0-13.45,10.9-24.35,24.35-24.35c13.45,0,24.35,10.9,24.35,24.35
		c0,13.45-10.9,24.35-24.35,24.35C1752.38,183.45,1741.47,172.55,1741.47,159.1z"/>
	<path class="st0" d="M1771.04,168.14c11.65-6.72,26.54-2.73,33.27,8.91c6.72,11.65,2.73,26.54-8.92,33.27
		c-11.65,6.73-26.54,2.73-33.27-8.91C1755.4,189.76,1759.4,174.86,1771.04,168.14z"/>
	<path class="st0" d="M1778,198.27c11.65,6.72,15.64,21.62,8.92,33.27c-6.72,11.65-21.62,15.64-33.27,8.91
		c-11.65-6.72-15.64-21.62-8.91-33.27C1751.46,195.53,1766.35,191.54,1778,198.27z"/>
	<circle class="st0" cx="1731.04" cy="219.36" r="24.35"/>
	<path class="st0" d="M1620.62,210.32c-11.65,6.73-26.54,2.74-33.27-8.91c-6.73-11.65-2.73-26.54,8.91-33.27
		c11.65-6.72,26.54-2.73,33.27,8.91C1636.26,188.7,1632.27,203.59,1620.62,210.32z"/>
	<path class="st0" d="M1613.66,180.19c-11.65-6.72-15.64-21.62-8.91-33.27c6.72-11.65,21.62-15.64,33.27-8.91
		c11.65,6.72,15.64,21.62,8.92,33.27C1640.21,182.92,1625.31,186.91,1613.66,180.19z"/>
	<path class="st0" d="M1636.28,159.1c0-13.45,10.9-24.35,24.35-24.35c13.45,0,24.35,10.9,24.35,24.35
		c0,13.45-10.9,24.35-24.35,24.35C1647.18,183.45,1636.28,172.55,1636.28,159.1z"/>
	<path class="st0" d="M1665.85,168.14c11.65-6.72,26.54-2.73,33.27,8.91c6.72,11.65,2.73,26.54-8.92,33.27
		c-11.65,6.73-26.54,2.73-33.27-8.91C1650.21,189.76,1654.2,174.86,1665.85,168.14z"/>
	<path class="st0" d="M1672.81,198.27c11.65,6.72,15.64,21.62,8.92,33.27c-6.72,11.65-21.62,15.64-33.27,8.91
		c-11.65-6.72-15.64-21.62-8.91-33.27C1646.27,195.53,1661.16,191.54,1672.81,198.27z"/>
	<circle class="st0" cx="1625.84" cy="219.36" r="24.35"/>
	<path class="st0" d="M1515.43,210.32c-11.65,6.73-26.54,2.74-33.27-8.91c-6.73-11.65-2.73-26.54,8.91-33.27
		c11.65-6.72,26.54-2.73,33.27,8.91C1531.07,188.7,1527.08,203.59,1515.43,210.32z"/>
	<path class="st0" d="M1508.47,180.19c-11.65-6.72-15.64-21.62-8.91-33.27c6.72-11.65,21.62-15.64,33.27-8.91
		c11.65,6.72,15.64,21.62,8.92,33.27C1535.01,182.92,1520.12,186.91,1508.47,180.19z"/>
	<path class="st0" d="M1531.08,159.1c0-13.45,10.9-24.35,24.35-24.35c13.45,0,24.35,10.9,24.35,24.35
		c0,13.45-10.9,24.35-24.35,24.35C1541.99,183.45,1531.08,172.55,1531.08,159.1z"/>
	<path class="st0" d="M1560.66,168.14c11.65-6.72,26.54-2.73,33.27,8.91c6.72,11.65,2.73,26.54-8.92,33.27
		c-11.65,6.73-26.54,2.73-33.27-8.91C1545.02,189.76,1549.01,174.86,1560.66,168.14z"/>
	<path class="st0" d="M1567.61,198.27c11.65,6.72,15.64,21.62,8.92,33.27c-6.72,11.65-21.62,15.64-33.27,8.91
		c-11.65-6.72-15.64-21.62-8.91-33.27C1541.07,195.53,1555.97,191.54,1567.61,198.27z"/>
	<circle class="st0" cx="1520.65" cy="219.36" r="24.35"/>
	<path class="st0" d="M1410.23,210.32c-11.65,6.73-26.54,2.74-33.27-8.91c-6.73-11.65-2.73-26.54,8.91-33.27
		c11.65-6.72,26.54-2.73,33.27,8.91C1425.87,188.7,1421.88,203.59,1410.23,210.32z"/>
	<path class="st0" d="M1403.28,180.19c-11.65-6.72-15.64-21.62-8.91-33.27c6.72-11.65,21.62-15.64,33.27-8.91
		c11.65,6.72,15.64,21.62,8.92,33.27C1429.82,182.92,1414.93,186.91,1403.28,180.19z"/>
	<path class="st0" d="M1425.89,159.1c0-13.45,10.9-24.35,24.35-24.35c13.45,0,24.35,10.9,24.35,24.35
		c0,13.45-10.9,24.35-24.35,24.35C1436.79,183.45,1425.89,172.55,1425.89,159.1z"/>
	<path class="st0" d="M1455.46,168.14c11.65-6.72,26.54-2.73,33.27,8.91c6.72,11.65,2.73,26.54-8.92,33.27
		c-11.65,6.73-26.54,2.73-33.27-8.91C1439.82,189.76,1443.81,174.86,1455.46,168.14z"/>
	<path class="st0" d="M1462.42,198.27c11.65,6.72,15.64,21.62,8.92,33.27c-6.72,11.65-21.62,15.64-33.27,8.91
		c-11.65-6.72-15.64-21.62-8.91-33.27C1435.88,195.53,1450.77,191.54,1462.42,198.27z"/>
	<circle class="st0" cx="1415.45" cy="219.36" r="24.35"/>
	<path class="st0" d="M1305.04,210.32c-11.65,6.73-26.54,2.74-33.27-8.91c-6.73-11.65-2.73-26.54,8.91-33.27
		c11.65-6.72,26.54-2.73,33.27,8.91C1320.68,188.7,1316.69,203.59,1305.04,210.32z"/>
	<path class="st0" d="M1298.08,180.19c-11.65-6.72-15.64-21.62-8.91-33.27c6.72-11.65,21.62-15.64,33.27-8.91
		c11.65,6.72,15.64,21.62,8.92,33.27C1324.63,182.92,1309.73,186.91,1298.08,180.19z"/>
	<path class="st0" d="M1320.7,159.1c0-13.45,10.9-24.35,24.35-24.35c13.45,0,24.35,10.9,24.35,24.35c0,13.45-10.9,24.35-24.35,24.35
		C1331.6,183.45,1320.7,172.55,1320.7,159.1z"/>
	<path class="st0" d="M1350.27,168.14c11.65-6.72,26.54-2.73,33.27,8.91c6.72,11.65,2.73,26.54-8.92,33.27
		c-11.65,6.73-26.54,2.73-33.27-8.91C1334.63,189.76,1338.62,174.86,1350.27,168.14z"/>
	<path class="st0" d="M1357.23,198.27c11.65,6.72,15.64,21.62,8.92,33.27c-6.72,11.65-21.62,15.64-33.27,8.91
		c-11.65-6.72-15.64-21.62-8.91-33.27C1330.69,195.53,1345.58,191.54,1357.23,198.27z"/>
	<circle class="st0" cx="1310.26" cy="219.36" r="24.35"/>
	<path class="st0" d="M1199.85,210.32c-11.65,6.73-26.54,2.74-33.27-8.91c-6.73-11.65-2.73-26.54,8.91-33.27
		c11.65-6.72,26.54-2.73,33.27,8.91C1215.49,188.7,1211.5,203.59,1199.85,210.32z"/>
	<path class="st0" d="M1192.89,180.19c-11.65-6.72-15.64-21.62-8.91-33.27c6.72-11.65,21.62-15.64,33.27-8.91
		c11.65,6.72,15.64,21.62,8.92,33.27C1219.43,182.92,1204.54,186.91,1192.89,180.19z"/>
	<path class="st0" d="M1215.5,159.1c0-13.45,10.9-24.35,24.35-24.35c13.45,0,24.35,10.9,24.35,24.35c0,13.45-10.9,24.35-24.35,24.35
		C1226.41,183.45,1215.5,172.55,1215.5,159.1z"/>
	<path class="st0" d="M1245.07,168.14c11.65-6.72,26.54-2.73,33.27,8.91c6.72,11.65,2.73,26.54-8.92,33.27
		c-11.65,6.73-26.54,2.73-33.27-8.91C1229.43,189.76,1233.43,174.86,1245.07,168.14z"/>
	<path class="st0" d="M1252.03,198.27c11.65,6.72,15.64,21.62,8.92,33.27c-6.72,11.65-21.62,15.64-33.27,8.91
		c-11.65-6.72-15.64-21.62-8.91-33.27C1225.49,195.53,1240.38,191.54,1252.03,198.27z"/>
	<circle class="st0" cx="1205.07" cy="219.36" r="24.35"/>
	<path class="st0" d="M1094.65,210.32c-11.65,6.73-26.54,2.74-33.27-8.91c-6.73-11.65-2.73-26.54,8.91-33.27
		c11.65-6.72,26.54-2.73,33.27,8.91C1110.29,188.7,1106.3,203.59,1094.65,210.32z"/>
	<path class="st0" d="M1087.69,180.19c-11.65-6.72-15.64-21.62-8.91-33.27c6.72-11.65,21.62-15.64,33.27-8.91
		c11.65,6.72,15.64,21.62,8.92,33.27C1114.24,182.92,1099.34,186.91,1087.69,180.19z"/>
	<path class="st0" d="M1110.31,159.1c0-13.45,10.9-24.35,24.35-24.35c13.45,0,24.35,10.9,24.35,24.35
		c0,13.45-10.9,24.35-24.35,24.35C1121.21,183.45,1110.31,172.55,1110.31,159.1z"/>
	<path class="st0" d="M1139.88,168.14c11.65-6.72,26.54-2.73,33.27,8.91c6.72,11.65,2.73,26.54-8.92,33.27
		c-11.65,6.73-26.54,2.73-33.27-8.91C1124.24,189.76,1128.23,174.86,1139.88,168.14z"/>
	<path class="st0" d="M1146.84,198.27c11.65,6.72,15.64,21.62,8.92,33.27c-6.72,11.65-21.62,15.64-33.27,8.91
		c-11.65-6.72-15.64-21.62-8.91-33.27C1120.3,195.53,1135.19,191.54,1146.84,198.27z"/>
	<circle class="st0" cx="1099.87" cy="219.36" r="24.35"/>
	<path class="st0" d="M989.46,210.32c-11.65,6.73-26.54,2.74-33.27-8.91c-6.73-11.65-2.73-26.54,8.91-33.27
		c11.65-6.72,26.54-2.73,33.27,8.91C1005.1,188.7,1001.11,203.59,989.46,210.32z"/>
	<path class="st0" d="M982.5,180.19c-11.65-6.72-15.64-21.62-8.91-33.27c6.72-11.65,21.62-15.64,33.27-8.91
		c11.65,6.72,15.64,21.62,8.92,33.27C1009.04,182.92,994.15,186.91,982.5,180.19z"/>
	<path class="st0" d="M1005.11,159.1c0-13.45,10.9-24.35,24.35-24.35c13.45,0,24.35,10.9,24.35,24.35
		c0,13.45-10.9,24.35-24.35,24.35C1016.02,183.45,1005.11,172.55,1005.11,159.1z"/>
	<path class="st0" d="M1034.69,168.14c11.65-6.72,26.54-2.73,33.27,8.91c6.72,11.65,2.73,26.54-8.92,33.27
		c-11.65,6.73-26.54,2.73-33.27-8.91C1019.05,189.76,1023.04,174.86,1034.69,168.14z"/>
	<path class="st0" d="M1041.64,198.27c11.65,6.72,15.64,21.62,8.92,33.27c-6.72,11.65-21.62,15.64-33.27,8.91
		c-11.65-6.72-15.64-21.62-8.91-33.27C1015.1,195.53,1030,191.54,1041.64,198.27z"/>
	<circle class="st0" cx="994.68" cy="219.36" r="24.35"/>
	<path class="st0" d="M884.26,210.32c-11.65,6.73-26.54,2.74-33.27-8.91c-6.73-11.65-2.73-26.54,8.91-33.27
		c11.65-6.72,26.54-2.73,33.27,8.91C899.9,188.7,895.91,203.59,884.26,210.32z"/>
	<path class="st0" d="M877.31,180.19c-11.65-6.72-15.64-21.62-8.91-33.27c6.72-11.65,21.62-15.64,33.27-8.91
		c11.65,6.72,15.64,21.62,8.92,33.27C903.85,182.92,888.95,186.91,877.31,180.19z"/>
	<path class="st0" d="M899.92,159.1c0-13.45,10.9-24.35,24.35-24.35c13.45,0,24.35,10.9,24.35,24.35c0,13.45-10.9,24.35-24.35,24.35
		C910.82,183.45,899.92,172.55,899.92,159.1z"/>
	<path class="st0" d="M929.49,168.14c11.65-6.72,26.54-2.73,33.27,8.91c6.72,11.65,2.73,26.54-8.92,33.27
		c-11.65,6.73-26.54,2.73-33.27-8.91C913.85,189.76,917.84,174.86,929.49,168.14z"/>
	<path class="st0" d="M936.45,198.27c11.65,6.72,15.64,21.62,8.92,33.27c-6.72,11.65-21.62,15.64-33.27,8.91
		c-11.65-6.72-15.64-21.62-8.91-33.27C909.91,195.53,924.8,191.54,936.45,198.27z"/>
	<circle class="st0" cx="889.48" cy="219.36" r="24.35"/>
	<path class="st0" d="M779.07,210.32c-11.65,6.73-26.54,2.74-33.27-8.91c-6.73-11.65-2.73-26.54,8.91-33.27
		c11.65-6.72,26.54-2.73,33.27,8.91C794.71,188.7,790.72,203.59,779.07,210.32z"/>
	<path class="st0" d="M772.11,180.19c-11.65-6.72-15.64-21.62-8.91-33.27c6.72-11.65,21.62-15.64,33.27-8.91
		c11.65,6.72,15.64,21.62,8.92,33.27C798.66,182.92,783.76,186.91,772.11,180.19z"/>
	<path class="st0" d="M794.73,159.1c0-13.45,10.9-24.35,24.35-24.35c13.45,0,24.35,10.9,24.35,24.35c0,13.45-10.9,24.35-24.35,24.35
		C805.63,183.45,794.73,172.55,794.73,159.1z"/>
	<path class="st0" d="M824.3,168.14c11.65-6.72,26.54-2.73,33.27,8.91c6.72,11.65,2.73,26.54-8.92,33.27
		c-11.65,6.73-26.54,2.73-33.27-8.91C808.66,189.76,812.65,174.86,824.3,168.14z"/>
	<path class="st0" d="M831.26,198.27c11.65,6.72,15.64,21.62,8.92,33.27c-6.72,11.65-21.62,15.64-33.27,8.91
		c-11.65-6.72-15.64-21.62-8.91-33.27C804.71,195.53,819.61,191.54,831.26,198.27z"/>
	<circle class="st0" cx="784.29" cy="219.36" r="24.35"/>
	<path class="st0" d="M673.88,210.32c-11.65,6.73-26.54,2.74-33.27-8.91c-6.73-11.65-2.73-26.54,8.91-33.27
		c11.65-6.72,26.54-2.73,33.27,8.91C689.52,188.7,685.52,203.59,673.88,210.32z"/>
	<path class="st0" d="M666.92,180.19c-11.65-6.72-15.64-21.62-8.91-33.27c6.72-11.65,21.62-15.64,33.27-8.91
		c11.65,6.72,15.64,21.62,8.92,33.27C693.46,182.92,678.57,186.91,666.92,180.19z"/>
	<path class="st0" d="M689.53,159.1c0-13.45,10.9-24.35,24.35-24.35c13.45,0,24.35,10.9,24.35,24.35c0,13.45-10.9,24.35-24.35,24.35
		C700.44,183.45,689.53,172.55,689.53,159.1z"/>
	<path class="st0" d="M719.1,168.14c11.65-6.72,26.54-2.73,33.27,8.91c6.72,11.65,2.73,26.54-8.92,33.27
		c-11.65,6.73-26.54,2.73-33.27-8.91C703.46,189.76,707.45,174.86,719.1,168.14z"/>
	<path class="st0" d="M726.06,198.27c11.65,6.72,15.64,21.62,8.92,33.27c-6.72,11.65-21.62,15.64-33.27,8.91
		c-11.65-6.72-15.64-21.62-8.91-33.27C699.52,195.53,714.41,191.54,726.06,198.27z"/>
	<circle class="st0" cx="679.09" cy="219.36" r="24.35"/>
	<path class="st0" d="M568.68,210.32c-11.65,6.73-26.54,2.74-33.27-8.91c-6.73-11.65-2.73-26.54,8.91-33.27
		c11.65-6.72,26.54-2.73,33.27,8.91C584.32,188.7,580.33,203.59,568.68,210.32z"/>
	<path class="st0" d="M561.72,180.19c-11.65-6.72-15.64-21.62-8.91-33.27c6.72-11.65,21.62-15.64,33.27-8.91
		c11.65,6.72,15.64,21.62,8.92,33.27C588.27,182.92,573.37,186.91,561.72,180.19z"/>
	<path class="st0" d="M584.34,159.1c0-13.45,10.9-24.35,24.35-24.35c13.45,0,24.35,10.9,24.35,24.35c0,13.45-10.9,24.35-24.35,24.35
		C595.24,183.45,584.34,172.55,584.34,159.1z"/>
	<path class="st0" d="M613.91,168.14c11.65-6.72,26.54-2.73,33.27,8.91c6.72,11.65,2.73,26.54-8.92,33.27
		c-11.65,6.73-26.54,2.73-33.27-8.91C598.27,189.76,602.26,174.86,613.91,168.14z"/>
	<path class="st0" d="M620.87,198.27c11.65,6.72,15.64,21.62,8.92,33.27c-6.72,11.65-21.62,15.64-33.27,8.91
		c-11.65-6.72-15.64-21.62-8.91-33.27C594.33,195.53,609.22,191.54,620.87,198.27z"/>
	<circle class="st0" cx="573.9" cy="219.36" r="24.35"/>
	<path class="st0" d="M463.49,210.32c-11.65,6.73-26.54,2.74-33.27-8.91c-6.73-11.65-2.73-26.54,8.91-33.27
		c11.65-6.72,26.54-2.73,33.27,8.91C479.13,188.7,475.14,203.59,463.49,210.32z"/>
	<path class="st0" d="M456.53,180.19c-11.65-6.72-15.64-21.62-8.91-33.27c6.72-11.65,21.62-15.64,33.27-8.91
		c11.65,6.72,15.64,21.62,8.92,33.27C483.07,182.92,468.18,186.91,456.53,180.19z"/>
	<path class="st0" d="M479.14,159.1c0-13.45,10.9-24.35,24.35-24.35c13.45,0,24.35,10.9,24.35,24.35c0,13.45-10.9,24.35-24.35,24.35
		C490.05,183.45,479.14,172.55,479.14,159.1z"/>
	<path class="st0" d="M508.72,168.14c11.65-6.72,26.54-2.73,33.27,8.91c6.72,11.65,2.73,26.54-8.92,33.27
		c-11.65,6.73-26.54,2.73-33.27-8.91C493.08,189.76,497.07,174.86,508.72,168.14z"/>
	<path class="st0" d="M515.67,198.27c11.65,6.72,15.64,21.62,8.92,33.27c-6.72,11.65-21.62,15.64-33.27,8.91
		c-11.65-6.72-15.64-21.62-8.91-33.27C489.13,195.53,504.02,191.54,515.67,198.27z"/>
	<circle class="st0" cx="468.71" cy="219.36" r="24.35"/>
	<path class="st0" d="M358.29,210.32c-11.65,6.73-26.54,2.74-33.27-8.91c-6.73-11.65-2.73-26.54,8.91-33.27
		c11.65-6.72,26.54-2.73,33.27,8.91C373.93,188.7,369.94,203.59,358.29,210.32z"/>
	<path class="st0" d="M351.34,180.19c-11.65-6.72-15.64-21.62-8.91-33.27c6.72-11.65,21.62-15.64,33.27-8.91
		c11.65,6.72,15.64,21.62,8.92,33.27C377.88,182.92,362.98,186.91,351.34,180.19z"/>
	<path class="st0" d="M373.95,159.1c0-13.45,10.9-24.35,24.35-24.35c13.45,0,24.35,10.9,24.35,24.35c0,13.45-10.9,24.35-24.35,24.35
		C384.85,183.45,373.95,172.55,373.95,159.1z"/>
	<path class="st0" d="M403.52,168.14c11.65-6.72,26.54-2.73,33.27,8.91c6.72,11.65,2.73,26.54-8.92,33.27
		c-11.65,6.73-26.54,2.73-33.27-8.91C387.88,189.76,391.87,174.86,403.52,168.14z"/>
	<path class="st0" d="M410.48,198.27c11.65,6.72,15.64,21.62,8.92,33.27c-6.72,11.65-21.62,15.64-33.27,8.91
		c-11.65-6.72-15.64-21.62-8.91-33.27C383.94,195.53,398.83,191.54,410.48,198.27z"/>
	<circle class="st0" cx="363.51" cy="219.36" r="24.35"/>
	<path class="st0" d="M253.1,210.32c-11.65,6.73-26.54,2.74-33.27-8.91c-6.73-11.65-2.73-26.54,8.91-33.27
		c11.65-6.72,26.54-2.73,33.27,8.91C268.74,188.7,264.75,203.59,253.1,210.32z"/>
	<path class="st0" d="M246.14,180.19c-11.65-6.72-15.64-21.62-8.91-33.27c6.72-11.65,21.62-15.64,33.27-8.91
		c11.65,6.72,15.64,21.62,8.92,33.27C272.69,182.92,257.79,186.91,246.14,180.19z"/>
	<path class="st0" d="M268.76,159.1c0-13.45,10.9-24.35,24.35-24.35c13.45,0,24.35,10.9,24.35,24.35c0,13.45-10.9,24.35-24.35,24.35
		C279.66,183.45,268.76,172.55,268.76,159.1z"/>
	<path class="st0" d="M298.33,168.14c11.65-6.72,26.54-2.73,33.27,8.91c6.72,11.65,2.73,26.54-8.92,33.27
		c-11.65,6.73-26.54,2.73-33.27-8.91C282.69,189.76,286.68,174.86,298.33,168.14z"/>
	<path class="st0" d="M305.29,198.27c11.65,6.72,15.64,21.62,8.92,33.27c-6.72,11.65-21.62,15.64-33.27,8.91
		c-11.65-6.72-15.64-21.62-8.91-33.27C278.74,195.53,293.64,191.54,305.29,198.27z"/>
	<circle class="st0" cx="258.32" cy="219.36" r="24.35"/>
	<path class="st0" d="M147.91,210.32c-11.65,6.73-26.54,2.74-33.27-8.91c-6.73-11.65-2.73-26.54,8.91-33.27
		c11.65-6.72,26.54-2.73,33.27,8.91C163.55,188.7,159.55,203.59,147.91,210.32z"/>
	<path class="st0" d="M140.95,180.19c-11.65-6.72-15.64-21.62-8.91-33.27c6.72-11.65,21.62-15.64,33.27-8.91
		c11.65,6.72,15.64,21.62,8.92,33.27C167.49,182.92,152.6,186.91,140.95,180.19z"/>
	<path class="st0" d="M163.56,159.1c0-13.45,10.9-24.35,24.35-24.35c13.45,0,24.35,10.9,24.35,24.35c0,13.45-10.9,24.35-24.35,24.35
		C174.46,183.45,163.56,172.55,163.56,159.1z"/>
	<path class="st0" d="M193.13,168.14c11.65-6.72,26.54-2.73,33.27,8.91c6.72,11.65,2.73,26.54-8.92,33.27
		c-11.65,6.73-26.54,2.73-33.27-8.91C177.49,189.76,181.48,174.86,193.13,168.14z"/>
	<path class="st0" d="M200.09,198.27c11.65,6.72,15.64,21.62,8.92,33.27c-6.72,11.65-21.62,15.64-33.27,8.91
		c-11.65-6.72-15.64-21.62-8.91-33.27C173.55,195.53,188.44,191.54,200.09,198.27z"/>
	<circle class="st0" cx="153.12" cy="219.36" r="24.35"/>
	<path class="st0" d="M42.71,210.32c-11.65,6.73-26.54,2.74-33.27-8.91c-6.73-11.65-2.73-26.54,8.91-33.27
		c11.65-6.72,26.54-2.73,33.27,8.91C58.35,188.7,54.36,203.59,42.71,210.32z"/>
	<path class="st0" d="M35.75,180.19c-11.65-6.72-15.64-21.62-8.91-33.27c6.72-11.65,21.62-15.64,33.27-8.91
		c11.65,6.72,15.64,21.62,8.92,33.27C62.3,182.92,47.4,186.91,35.75,180.19z"/>
	<path class="st0" d="M58.37,159.1c0-13.45,10.9-24.35,24.35-24.35c13.45,0,24.35,10.9,24.35,24.35c0,13.45-10.9,24.35-24.35,24.35
		C69.27,183.45,58.37,172.55,58.37,159.1z"/>
	<path class="st0" d="M87.94,168.14c11.65-6.72,26.54-2.73,33.27,8.91c6.72,11.65,2.73,26.54-8.92,33.27
		c-11.65,6.73-26.54,2.73-33.27-8.91C72.3,189.76,76.29,174.86,87.94,168.14z"/>
	<path class="st0" d="M94.9,198.27c11.65,6.72,15.64,21.62,8.92,33.27c-6.72,11.65-21.62,15.64-33.27,8.91
		c-11.65-6.72-15.64-21.62-8.91-33.27C68.36,195.53,83.25,191.54,94.9,198.27z"/>
	<circle class="st0" cx="47.93" cy="219.36" r="24.35"/>
	<path class="st0" d="M-69.44,180.19c-11.65-6.72-15.64-21.62-8.91-33.27c6.72-11.65,21.62-15.64,33.27-8.91
		c11.65,6.72,15.64,21.62,8.92,33.27C-42.9,182.92-57.79,186.91-69.44,180.19z"/>
	<path class="st0" d="M-46.83,159.1c0-13.45,10.9-24.35,24.35-24.35c13.45,0,24.35,10.9,24.35,24.35c0,13.45-10.9,24.35-24.35,24.35
		C-35.92,183.45-46.83,172.55-46.83,159.1z"/>
	<path class="st0" d="M-17.25,168.14c11.65-6.72,26.54-2.73,33.27,8.91c6.72,11.65,2.73,26.54-8.92,33.27
		c-11.65,6.73-26.54,2.73-33.27-8.91C-32.89,189.76-28.9,174.86-17.25,168.14z"/>
	<path class="st0" d="M-10.3,198.27c11.65,6.72,15.64,21.62,8.92,33.27c-6.72,11.65-21.62,15.64-33.27,8.91
		c-11.65-6.72-15.64-21.62-8.91-33.27C-36.84,195.53-21.95,191.54-10.3,198.27z"/>
	<circle class="st0" cx="-57.26" cy="219.36" r="24.35"/>
	<path class="st0" d="M1876.65,268.95c-11.65-6.72-15.64-21.62-8.91-33.27c6.72-11.65,21.62-15.64,33.27-8.91
		c11.65,6.72,15.64,21.62,8.92,33.27C1903.19,271.68,1888.3,275.67,1876.65,268.95z"/>
	<path class="st0" d="M1899.26,247.86c0-13.45,10.9-24.35,24.35-24.35c13.45,0,24.35,10.9,24.35,24.35
		c0,13.45-10.9,24.35-24.35,24.35C1910.17,272.21,1899.26,261.31,1899.26,247.86z"/>
	<path class="st0" d="M1771.46,268.95c-11.65-6.72-15.64-21.62-8.91-33.27c6.72-11.65,21.62-15.64,33.27-8.91
		c11.65,6.72,15.64,21.62,8.92,33.27C1798,271.68,1783.1,275.67,1771.46,268.95z"/>
	<path class="st0" d="M1794.07,247.86c0-13.45,10.9-24.35,24.35-24.35c13.45,0,24.35,10.9,24.35,24.35
		c0,13.45-10.9,24.35-24.35,24.35C1804.97,272.21,1794.07,261.31,1794.07,247.86z"/>
	<path class="st0" d="M1666.26,268.95c-11.65-6.72-15.64-21.62-8.91-33.27c6.72-11.65,21.62-15.64,33.27-8.91
		c11.65,6.72,15.64,21.62,8.92,33.27C1692.81,271.68,1677.91,275.67,1666.26,268.95z"/>
	<path class="st0" d="M1688.88,247.86c0-13.45,10.9-24.35,24.35-24.35c13.45,0,24.35,10.9,24.35,24.35
		c0,13.45-10.9,24.35-24.35,24.35C1699.78,272.21,1688.88,261.31,1688.88,247.86z"/>
	<path class="st0" d="M1561.07,268.95c-11.65-6.72-15.64-21.62-8.91-33.27c6.72-11.65,21.62-15.64,33.27-8.91
		c11.65,6.72,15.64,21.62,8.92,33.27C1587.61,271.68,1572.72,275.67,1561.07,268.95z"/>
	<path class="st0" d="M1583.68,247.86c0-13.45,10.9-24.35,24.35-24.35c13.45,0,24.35,10.9,24.35,24.35
		c0,13.45-10.9,24.35-24.35,24.35C1594.59,272.21,1583.68,261.31,1583.68,247.86z"/>
	<path class="st0" d="M1455.87,268.95c-11.65-6.72-15.64-21.62-8.91-33.27c6.72-11.65,21.62-15.64,33.27-8.91
		c11.65,6.72,15.64,21.62,8.92,33.27C1482.42,271.68,1467.52,275.67,1455.87,268.95z"/>
	<path class="st0" d="M1478.49,247.86c0-13.45,10.9-24.35,24.35-24.35c13.45,0,24.35,10.9,24.35,24.35
		c0,13.45-10.9,24.35-24.35,24.35C1489.39,272.21,1478.49,261.31,1478.49,247.86z"/>
	<path class="st0" d="M1350.68,268.95c-11.65-6.72-15.64-21.62-8.91-33.27c6.72-11.65,21.62-15.64,33.27-8.91
		c11.65,6.72,15.64,21.62,8.92,33.27C1377.22,271.68,1362.33,275.67,1350.68,268.95z"/>
	<path class="st0" d="M1373.29,247.86c0-13.45,10.9-24.35,24.35-24.35c13.45,0,24.35,10.9,24.35,24.35
		c0,13.45-10.9,24.35-24.35,24.35C1384.2,272.21,1373.29,261.31,1373.29,247.86z"/>
	<path class="st0" d="M1245.49,268.95c-11.65-6.72-15.64-21.62-8.91-33.27c6.72-11.65,21.62-15.64,33.27-8.91
		c11.65,6.72,15.64,21.62,8.92,33.27C1272.03,271.68,1257.13,275.67,1245.49,268.95z"/>
	<path class="st0" d="M1268.1,247.86c0-13.45,10.9-24.35,24.35-24.35c13.45,0,24.35,10.9,24.35,24.35
		c0,13.45-10.9,24.35-24.35,24.35C1279,272.21,1268.1,261.31,1268.1,247.86z"/>
	<path class="st0" d="M1140.29,268.95c-11.65-6.72-15.64-21.62-8.91-33.27c6.72-11.65,21.62-15.64,33.27-8.91
		c11.65,6.72,15.64,21.62,8.92,33.27C1166.83,271.68,1151.94,275.67,1140.29,268.95z"/>
	<path class="st0" d="M1162.91,247.86c0-13.45,10.9-24.35,24.35-24.35c13.45,0,24.35,10.9,24.35,24.35
		c0,13.45-10.9,24.35-24.35,24.35C1173.81,272.21,1162.91,261.31,1162.91,247.86z"/>
	<path class="st0" d="M1035.1,268.95c-11.65-6.72-15.64-21.62-8.91-33.27c6.72-11.65,21.62-15.64,33.27-8.91
		c11.65,6.72,15.64,21.62,8.92,33.27C1061.64,271.68,1046.75,275.67,1035.1,268.95z"/>
	<path class="st0" d="M1057.71,247.86c0-13.45,10.9-24.35,24.35-24.35c13.45,0,24.35,10.9,24.35,24.35
		c0,13.45-10.9,24.35-24.35,24.35C1068.61,272.21,1057.71,261.31,1057.71,247.86z"/>
	<path class="st0" d="M929.9,268.95c-11.65-6.72-15.64-21.62-8.91-33.27c6.72-11.65,21.62-15.64,33.27-8.91
		c11.65,6.72,15.64,21.62,8.92,33.27C956.45,271.68,941.55,275.67,929.9,268.95z"/>
	<path class="st0" d="M952.52,247.86c0-13.45,10.9-24.35,24.35-24.35c13.45,0,24.35,10.9,24.35,24.35
		c0,13.45-10.9,24.35-24.35,24.35C963.42,272.21,952.52,261.31,952.52,247.86z"/>
	<path class="st0" d="M824.71,268.95c-11.65-6.72-15.64-21.62-8.91-33.27c6.72-11.65,21.62-15.64,33.27-8.91
		c11.65,6.72,15.64,21.62,8.92,33.27C851.25,271.68,836.36,275.67,824.71,268.95z"/>
	<path class="st0" d="M847.32,247.86c0-13.45,10.9-24.35,24.35-24.35c13.45,0,24.35,10.9,24.35,24.35
		c0,13.45-10.9,24.35-24.35,24.35C858.23,272.21,847.32,261.31,847.32,247.86z"/>
	<path class="st0" d="M719.51,268.95c-11.65-6.72-15.64-21.62-8.91-33.27c6.72-11.65,21.62-15.64,33.27-8.91
		c11.65,6.72,15.64,21.62,8.92,33.27C746.06,271.68,731.16,275.67,719.51,268.95z"/>
	<path class="st0" d="M742.13,247.86c0-13.45,10.9-24.35,24.35-24.35c13.45,0,24.35,10.9,24.35,24.35
		c0,13.45-10.9,24.35-24.35,24.35C753.03,272.21,742.13,261.31,742.13,247.86z"/>
	<path class="st0" d="M614.32,268.95c-11.65-6.72-15.64-21.62-8.91-33.27c6.72-11.65,21.62-15.64,33.27-8.91
		c11.65,6.72,15.64,21.62,8.92,33.27C640.86,271.68,625.97,275.67,614.32,268.95z"/>
	<path class="st0" d="M636.93,247.86c0-13.45,10.9-24.35,24.35-24.35c13.45,0,24.35,10.9,24.35,24.35
		c0,13.45-10.9,24.35-24.35,24.35C647.84,272.21,636.93,261.31,636.93,247.86z"/>
	<path class="st0" d="M509.13,268.95c-11.65-6.72-15.64-21.62-8.91-33.27c6.72-11.65,21.62-15.64,33.27-8.91
		c11.65,6.72,15.64,21.62,8.92,33.27C535.67,271.68,520.78,275.67,509.13,268.95z"/>
	<path class="st0" d="M531.74,247.86c0-13.45,10.9-24.35,24.35-24.35c13.45,0,24.35,10.9,24.35,24.35
		c0,13.45-10.9,24.35-24.35,24.35C542.64,272.21,531.74,261.31,531.74,247.86z"/>
	<path class="st0" d="M403.93,268.95c-11.65-6.72-15.64-21.62-8.91-33.27c6.72-11.65,21.62-15.64,33.27-8.91
		c11.65,6.72,15.64,21.62,8.92,33.27C430.48,271.68,415.58,275.67,403.93,268.95z"/>
	<path class="st0" d="M426.55,247.86c0-13.45,10.9-24.35,24.35-24.35c13.45,0,24.35,10.9,24.35,24.35
		c0,13.45-10.9,24.35-24.35,24.35C437.45,272.21,426.55,261.31,426.55,247.86z"/>
	<path class="st0" d="M298.74,268.95c-11.65-6.72-15.64-21.62-8.91-33.27c6.72-11.65,21.62-15.64,33.27-8.91
		c11.65,6.72,15.64,21.62,8.92,33.27C325.28,271.68,310.39,275.67,298.74,268.95z"/>
	<path class="st0" d="M321.35,247.86c0-13.45,10.9-24.35,24.35-24.35c13.45,0,24.35,10.9,24.35,24.35
		c0,13.45-10.9,24.35-24.35,24.35C332.26,272.21,321.35,261.31,321.35,247.86z"/>
	<path class="st0" d="M193.54,268.95c-11.65-6.72-15.64-21.62-8.91-33.27c6.72-11.65,21.62-15.64,33.27-8.91
		c11.65,6.72,15.64,21.62,8.92,33.27C220.09,271.68,205.19,275.67,193.54,268.95z"/>
	<path class="st0" d="M216.16,247.86c0-13.45,10.9-24.35,24.35-24.35c13.45,0,24.35,10.9,24.35,24.35
		c0,13.45-10.9,24.35-24.35,24.35C227.06,272.21,216.16,261.31,216.16,247.86z"/>
	<path class="st0" d="M88.35,268.95c-11.65-6.72-15.64-21.62-8.91-33.27c6.72-11.65,21.62-15.64,33.27-8.91
		c11.65,6.72,15.64,21.62,8.92,33.27C114.89,271.68,100,275.67,88.35,268.95z"/>
	<path class="st0" d="M110.96,247.86c0-13.45,10.9-24.35,24.35-24.35c13.45,0,24.35,10.9,24.35,24.35
		c0,13.45-10.9,24.35-24.35,24.35C121.87,272.21,110.96,261.31,110.96,247.86z"/>
	<path class="st0" d="M-16.84,268.95c-11.65-6.72-15.64-21.62-8.91-33.27c6.72-11.65,21.62-15.64,33.27-8.91
		c11.65,6.72,15.64,21.62,8.92,33.27C9.7,271.68-5.19,275.67-16.84,268.95z"/>
	<path class="st0" d="M5.77,247.86c0-13.45,10.9-24.35,24.35-24.35c13.45,0,24.35,10.9,24.35,24.35c0,13.45-10.9,24.35-24.35,24.35
		C16.67,272.21,5.77,261.31,5.77,247.86z"/>
</g>
</svg>
